<svg xmlns="http://www.w3.org/2000/svg" width="100" height="100" viewBox="0 0 100 100">
  <g id="icon-map" transform="translate(-676 -169)">
    <g id="Rectangle_24495" data-name="Rectangle 24495" transform="translate(676 169)" fill="#fff" stroke="#707070" stroke-width="1" opacity="0">
      <rect width="100" height="100" stroke="none"/>
      <rect x="0.5" y="0.5" width="99" height="99" fill="none"/>
    </g>
    <g id="map" transform="translate(690 159.728)">
      <g id="Group_37665" data-name="Group 37665" transform="translate(0 27.272)">
        <g id="Group_37664" data-name="Group 37664" transform="translate(0 0)">
          <path id="Path_99726" data-name="Path 99726" d="M71.985,90.357,67.766,67.1a1.057,1.057,0,1,0-2.08.377l1.784,9.834L53.72,61.337l9.248-2.064,1.369.762.595,3.279a1.057,1.057,0,0,0,2.08-.377l-.684-3.771a1.056,1.056,0,0,0-.526-.735l-2.158-1.2h0l-6.819-3.8h0l-5.261-2.929h0a1.049,1.049,0,0,0-.125-.059l-.041-.013c-.03-.01-.059-.02-.09-.028l-.052-.01c-.027-.005-.054-.011-.082-.014l-.056,0c-.027,0-.053,0-.08,0l-.057,0c-.026,0-.052,0-.078.008l-.057.01-.076.018-.057.017c-.024.008-.049.018-.073.028l-.055.025-.024.011L48.147,51.75a20.55,20.55,0,0,0,2.7-9.7,14.783,14.783,0,1,0-29.565,0,20.614,20.614,0,0,0,2.755,9.793l-2.6-1.356-.025-.011-.054-.024c-.024-.01-.049-.02-.074-.028l-.056-.017-.076-.018-.057-.01c-.026,0-.052-.006-.077-.008l-.058,0c-.026,0-.052,0-.077,0l-.058,0c-.026,0-.052.008-.078.013s-.037.006-.055.011-.057.017-.085.027l-.045.015a1.064,1.064,0,0,0-.124.059h0L6.2,58.431a1.056,1.056,0,0,0-.526.735L1.664,81.277a1.057,1.057,0,0,0,2.08.377l1.2-6.633,13.677-7.23-1.1,14.2L2.455,88.759l.53-2.925a1.057,1.057,0,1,0-2.08-.377l-.889,4.9A1.057,1.057,0,0,0,1.49,91.509l17.039-7.651,17.032,7.647h0l.006,0,.029.011.047.018.047.016.03.009.04.01.066.013.032.006.022,0a1.038,1.038,0,0,0,.106.007h.02a1.056,1.056,0,0,0,.128-.009h.016l.024-.005a1,1,0,0,0,.1-.022l.027-.006h0l.009,0a1.049,1.049,0,0,0,.121-.045l17.039-7.651,17.039,7.651c.016.007.033.013.05.019l.05.019c.022.007.045.013.067.019l.042.011c.027.006.055.01.082.014l.029,0a1.044,1.044,0,0,0,.113.006h0a1.069,1.069,0,0,0,.154-.013l.035-.006a1.031,1.031,0,0,0,.15-.038l.009,0a.982.982,0,0,0,.1-.039l.026-.015c.027-.013.052-.029.078-.045s.051-.031.075-.049l.026-.017c.019-.014.035-.031.052-.047s.028-.024.042-.037a1.008,1.008,0,0,0,.088-.1l.016-.019a1.056,1.056,0,0,0,.084-.134c.007-.013.012-.027.019-.04a1.084,1.084,0,0,0,.044-.1c.006-.018.011-.036.017-.055s.018-.066.024-.1.007-.039.01-.059A1.075,1.075,0,0,0,72,90.571c0-.017,0-.034,0-.052A.982.982,0,0,0,71.985,90.357ZM53.409,53.951l-1.083.253-.069-.9ZM51.1,65.8,46.69,62.35a1.057,1.057,0,0,0-1.072-.136l-8.556,3.724V64.78a49.639,49.639,0,0,0,3.833-3.51l9.534-4.188Zm-.983-12.69.135,1.743L44.3,57.465q.887-1.1,1.654-2.187Zm-28.24,0,4.38,2.283q.973,1.368,2.134,2.756c.677.809,1.352,1.56,2,2.248l-8.98-1.285ZM18.817,65.3,5.426,72.376l.652-3.6.017-.093,12.99-6.846Zm.461-5.947-12.7,6.7,1.09-6.011L19.745,53.31l-.3,3.921Zm.363,22.69,1-12.919L33.124,88.095Zm15.3-4.073-6.51-10.26,6.51.779Zm0-11.609-8.47-1.014a1.057,1.057,0,0,0-1.018,1.616l9.488,14.952v5.1L20.907,65.681l.346-4.462,11.66,1.668c.879.816,1.592,1.422,2.032,1.784v1.687Zm1.125-3.5C33.4,60.6,23.4,51.535,23.4,42.055a12.669,12.669,0,1,1,25.339,0C48.738,51.535,38.737,60.6,36.069,62.855Zm.989,26.058V84.221l3.159,3.272Zm5.209-2.339-5.209-5.395V68.244L45.885,64.4l5.44,4.247,1.037,13.391ZM52.491,56.337l3.664-.857,2.6,1.446,1.438.8-7.464,1.666Zm1.987,25.656-.825-10.652L67.229,87.718ZM53.37,67.688l-.287-3.708-.012-.157L68.215,81.413l.971,5.354Z" transform="translate(0 -27.272)"/>
        </g>
      </g>
      <g id="Group_37667" data-name="Group 37667" transform="translate(29.537 35.524)">
        <g id="Group_37666" data-name="Group 37666" transform="translate(0 0)">
          <path id="Path_99727" data-name="Path 99727" d="M216.573,85.95a1.057,1.057,0,0,0,0,2.114,4.418,4.418,0,1,1-3.151,1.322,1.057,1.057,0,1,0-1.508-1.481,6.531,6.531,0,1,0,4.659-1.954Z" transform="translate(-210.042 -85.95)"/>
        </g>
      </g>
    </g>
  </g>
</svg>
