<svg xmlns="http://www.w3.org/2000/svg" width="79.846" height="48.933" viewBox="0 0 79.846 48.933">
  <path id="ok" d="M45.981-27.433q0,1.8-2.3,3.293a15.8,15.8,0,0,1-2.3,1.227q-1.3.575-2.687,1.041t-2.75.792a20.621,20.621,0,0,1-2.485.45q-.528.062-3.573.186a13.387,13.387,0,0,0-3.293.342,3.242,3.242,0,0,0-.777,1.74q-.062.311-.109.637t-.078.854q-.031.528-.047,1.32t-.016,2a10.224,10.224,0,0,1-.14,1.616,14.28,14.28,0,0,1-.388,1.724,11.224,11.224,0,0,1-.621,1.647,7.1,7.1,0,0,1-.839,1.383,13.178,13.178,0,0,1-1.786,1.926,27.783,27.783,0,0,1-2.346,1.88,29.351,29.351,0,0,1-2.7,1.724,25.257,25.257,0,0,1-2.874,1.4,20.474,20.474,0,0,1-2.827.932,10.838,10.838,0,0,1-2.594.342A7.4,7.4,0,0,1,5,.311,5.648,5.648,0,0,1,2.843-1.616,8.007,8.007,0,0,1,1.724-4.443,17.408,17.408,0,0,1,1.4-7.891a14.993,14.993,0,0,1,.435-3.619,25.056,25.056,0,0,1,1.134-3.464q.7-1.709,1.553-3.371t1.693-3.34q.808-1.336,1.476-2.548T9.025-26.5a14.549,14.549,0,0,1,1.414-1.9,7.352,7.352,0,0,1,1.771-1.445,8.6,8.6,0,0,1,2.392-.932,14.216,14.216,0,0,1,3.262-.326,4.565,4.565,0,0,1,1.476.217,4.069,4.069,0,0,1,1.165.621,6.748,6.748,0,0,1,1.01.963q.482.559,1.041,1.243.621.777,1.072,1.3t.73.808a3.518,3.518,0,0,0,1.522.761,11.5,11.5,0,0,0,2.641.233q2.268,0,3.666-.093t2.548-.28q1.3-.217,2.392-.466t2.159-.528q1.072-.28,2.19-.606t2.423-.761a5.312,5.312,0,0,1,1.46-.186Q45.981-27.868,45.981-27.433Zm-24.73,7.891a6.765,6.765,0,0,0-.186-1.849,2.8,2.8,0,0,0-.5-.979,7.926,7.926,0,0,0-.715-.746,4.581,4.581,0,0,1-.839-1.181,6.98,6.98,0,0,0-.823-1.274,1.575,1.575,0,0,0-1.227-.4A5.689,5.689,0,0,0,12.8-23.8a19.125,19.125,0,0,0-1.9,2.47,24.288,24.288,0,0,0-1.678,3.06q-.621,1.3-1.212,2.843T6.959-12.3Q6.493-10.719,6.2-9.181a15.3,15.3,0,0,0-.3,2.874,2.527,2.527,0,0,0,.249,1.087,2.654,2.654,0,0,0,.746.932,4.006,4.006,0,0,0,1.2.652,4.866,4.866,0,0,0,1.631.249,4.993,4.993,0,0,0,1.724-.4,18.5,18.5,0,0,0,2.128-.994,20.517,20.517,0,0,0,2.035-1.258,11.486,11.486,0,0,0,1.476-1.2,20.623,20.623,0,0,0,2.33-2.889,10.44,10.44,0,0,0,1.243-2.656,12.915,12.915,0,0,0,.5-2.952Q21.251-17.336,21.251-19.542ZM81.244-3.852a1.679,1.679,0,0,1-.73,1.258,7.025,7.025,0,0,1-1.755,1.041,13.838,13.838,0,0,1-2.1.7,7.663,7.663,0,0,1-1.755.264,21.818,21.818,0,0,1-5.2-.59A34.193,34.193,0,0,1,64.809-2.8a31.209,31.209,0,0,1-3.915-1.926Q59.03-5.81,57.181-6.99T53.438-9.4q-1.9-1.227-4.008-2.408l-.3.3q-.233.233-.528.513t-.621.575q-.326.3-.544.482A13.062,13.062,0,0,0,46.183-8.7a8.089,8.089,0,0,0-.746,1.01,6.29,6.29,0,0,0-.482.948q-.186.466-.435,1.025A3.492,3.492,0,0,1,44.474-4.3,7.464,7.464,0,0,0,44.3-2.8,4.662,4.662,0,0,1,43.449.249a3.3,3.3,0,0,1-2.687,1.025q-1.118,0-1.414-.544a3.88,3.88,0,0,1-.3-1.755q0-.373.14-1.6t.357-3.014q.217-1.786.513-3.977t.621-4.474q.326-2.284.637-4.536t.59-4.163q.28-1.911.482-3.309t.3-2.019q.062-.559.155-1.678t.2-2.517q.109-1.4.233-2.936t.233-2.9q.109-1.367.186-2.423t.109-1.491l.249-3.045a1.65,1.65,0,0,1,.435-.994,3.959,3.959,0,0,1,.979-.808,5.675,5.675,0,0,1,1.227-.544,4.116,4.116,0,0,1,1.212-.2,1.936,1.936,0,0,1,.932.217,2.286,2.286,0,0,1,.668.528,2.049,2.049,0,0,1,.388.684,2.105,2.105,0,0,1,.124.652,14.166,14.166,0,0,1-.155,1.584q-.155,1.15-.435,2.765t-.621,3.542q-.342,1.926-.7,3.9t-.7,3.852q-.342,1.88-.621,3.386t-.466,2.5q-.186.994-.217,1.212-.466,3.759-.808,6.4t-.59,4.163q.311-.342,1.134-1.258t1.911-2.113l2.3-2.532q1.212-1.336,2.268-2.532t1.849-2.082q.792-.885,1.041-1.2,1.274-1.647,2.625-3.34a38.591,38.591,0,0,1,2.7-3.06,15.79,15.79,0,0,1,2.687-2.221,4.84,4.84,0,0,1,2.61-.854q1.988,0,1.988,1.087a2.934,2.934,0,0,1-.326,1.2,11.487,11.487,0,0,1-.792,1.414q-.466.715-.979,1.383t-.917,1.1q-.5.559-1.258,1.32T61.9-24.327q-.885.87-1.849,1.786t-1.849,1.755q-.885.839-1.616,1.538t-1.165,1.134q-.373.373-.715.684t-.668.621a7.013,7.013,0,0,0-.637.7q-.311.388-.684.917,3.014,1.833,6.074,3.557t6.089,3.122a61.932,61.932,0,0,0,6,2.408A34.083,34.083,0,0,0,76.677-4.66a10.958,10.958,0,0,0,1.973.171q.854-.016,1.429,0a2.881,2.881,0,0,1,.87.124A.482.482,0,0,1,81.244-3.852Z" transform="translate(-1.398 47.659)" fill="red"/>
</svg>
