<svg xmlns="http://www.w3.org/2000/svg" width="100" height="100" viewBox="0 0 100 100">
  <g id="icon-info" transform="translate(-512 -330)">
    <g id="Rectangle_24500" data-name="Rectangle 24500" transform="translate(512 330)" fill="#fff" stroke="#707070" stroke-width="1" opacity="0">
      <rect width="100" height="100" stroke="none"/>
      <rect x="0.5" y="0.5" width="99" height="99" fill="none"/>
    </g>
    <g id="info" transform="translate(532 350)" opacity="0.6">
      <path id="Path_99748" data-name="Path 99748" d="M412,127.172A1.172,1.172,0,1,0,413.172,126,1.172,1.172,0,0,0,412,127.172Zm0,0" transform="translate(-363.719 -111.234)"/>
      <path id="Path_99749" data-name="Path 99749" d="M434.935,171.459a22.322,22.322,0,0,1-.447,4.453,1.172,1.172,0,0,0,.914,1.382,1.155,1.155,0,0,0,.236.024,1.173,1.173,0,0,0,1.147-.938,24.662,24.662,0,0,0,.494-4.922A24.344,24.344,0,0,0,434.9,160.9a1.172,1.172,0,1,0-2.116,1.008A22.02,22.02,0,0,1,434.935,171.459Zm0,0" transform="translate(-381.967 -141.459)"/>
      <path id="Path_99750" data-name="Path 99750" d="M208.891,222.406h-1.172V207.172A1.172,1.172,0,0,0,206.547,206h-9.375A1.172,1.172,0,0,0,196,207.172v4.688a1.172,1.172,0,0,0,1.172,1.172h1.172v9.375h-1.172A1.172,1.172,0,0,0,196,223.578v4.687a1.172,1.172,0,0,0,1.172,1.172h11.719a1.172,1.172,0,0,0,1.172-1.172v-4.687A1.172,1.172,0,0,0,208.891,222.406Zm-1.172,4.687h-9.375V224.75h1.172a1.172,1.172,0,0,0,1.172-1.172V211.859a1.172,1.172,0,0,0-1.172-1.172h-1.172v-2.344h7.031v15.234a1.172,1.172,0,0,0,1.172,1.172h1.172Zm0,0" transform="translate(-173.032 -181.859)"/>
      <path id="Path_99751" data-name="Path 99751" d="M220.688,115.375A4.687,4.687,0,1,0,216,110.688,4.693,4.693,0,0,0,220.688,115.375Zm0-7.031a2.344,2.344,0,1,1-2.344,2.344A2.347,2.347,0,0,1,220.688,108.344Zm0,0" transform="translate(-190.688 -93.578)"/>
      <path id="Path_99752" data-name="Path 99752" d="M30,0C13.83,0,0,13.8,0,30A31.956,31.956,0,0,0,4.258,45.865L.06,58.458A1.172,1.172,0,0,0,1.542,59.94l12.593-4.2A31.948,31.948,0,0,0,30,60c16.173,0,30-13.807,30-30C60,13.827,46.193,0,30,0Zm0,57.656a29.311,29.311,0,0,1-15.089-4.189,1.171,1.171,0,0,0-1-.122L3.024,56.975l3.63-10.888a1.17,1.17,0,0,0-.122-1A29.31,29.31,0,0,1,2.343,30,28.027,28.027,0,0,1,30,2.344,28.027,28.027,0,0,1,57.656,30,28.027,28.027,0,0,1,30,57.656Zm0,0" transform="translate(0)"/>
    </g>
  </g>
</svg>
