<svg xmlns="http://www.w3.org/2000/svg" width="100" height="100" viewBox="0 0 100 100">
  <g id="icon-bluetooth" transform="translate(-786 -182)">
    <g id="Rectangle_24496" data-name="Rectangle 24496" transform="translate(786 182)" fill="#fff" stroke="#707070" stroke-width="1" opacity="0">
      <rect width="100" height="100" stroke="none"/>
      <rect x="0.5" y="0.5" width="99" height="99" fill="none"/>
    </g>
    <g id="bluetooth_1_" data-name="bluetooth (1)" transform="translate(798 194)">
      <path id="Path_99728" data-name="Path 99728" d="M54.236,2H21.765C18.031,2,15,4.688,15,8V68c0,3.312,3.031,6,6.765,6H54.236C57.97,74,61,71.313,61,68V8C61,4.688,57.97,2,54.236,2ZM27.177,4.4H48.824V8a1.283,1.283,0,0,1-1.353,1.2H28.53A1.283,1.283,0,0,1,27.177,8ZM58.295,68a3.85,3.85,0,0,1-4.059,3.6H21.765A3.85,3.85,0,0,1,17.706,68V8a3.85,3.85,0,0,1,4.059-3.6h2.706V8a3.85,3.85,0,0,0,4.059,3.6H47.471A3.85,3.85,0,0,0,51.53,8V4.4h2.706A3.85,3.85,0,0,1,58.295,8Z" transform="translate(0)"/>
      <path id="Path_99729" data-name="Path 99729" d="M41,58H23a1,1,0,0,1,0-2H41a1,1,0,0,1,0,2Z" transform="translate(6 12.001)"/>
      <path id="Path_99730" data-name="Path 99730" d="M35,60H29c-4.968-.008-8.994-5.544-9-12.375V28.375c.006-6.831,4.032-12.368,9-12.375h6c4.968.008,8.994,5.544,9,12.375v19.25C43.994,54.457,39.968,59.993,35,60ZM29,18.75c-3.864.006-7,4.312-7,9.625v19.25c0,5.313,3.136,9.619,7,9.625h6c3.864-.006,7-4.312,7-9.625V28.375c0-5.313-3.136-9.619-7-9.625Z" transform="translate(6 0)"/>
      <path id="Path_99731" data-name="Path 99731" d="M32,44a1,1,0,0,1-1-1V34.135l-4.359,3.633a1,1,0,1,1-1.282-1.536L30.437,32l-5.078-4.232a1,1,0,0,1,1.282-1.536L31,29.865V21a1,1,0,0,1,1.707-.707l6,6a1,1,0,0,1-.066,1.475L33.562,32l5.079,4.232a1,1,0,0,1,.066,1.475l-6,6A1,1,0,0,1,32,44Zm1-9.865v6.451l3.519-3.519Zm0-10.721v6.451l3.519-2.932Z" transform="translate(6 6)"/>
      <path id="Path_99732" data-name="Path 99732" d="M51.172,35.829A1,1,0,0,1,50.49,34.1a2.817,2.817,0,0,0,0-4.194,1,1,0,1,1,1.364-1.463,4.817,4.817,0,0,1,0,7.12A1,1,0,0,1,51.172,35.829Z" transform="translate(12 6.001)"/>
      <path id="Path_99733" data-name="Path 99733" d="M57.24,41.484a1,1,0,0,1-.682-1.731,10.453,10.453,0,0,0,0-15.506,1,1,0,1,1,1.365-1.462,12.453,12.453,0,0,1,0,18.43,1,1,0,0,1-.683.269Z" transform="translate(12 6)"/>
      <path id="Path_99734" data-name="Path 99734" d="M54.206,38.656a1,1,0,0,1-.683-1.731,6.633,6.633,0,0,0,0-9.85,1,1,0,0,1,1.366-1.462,8.635,8.635,0,0,1,0,12.774,1,1,0,0,1-.683.269Z" transform="translate(12 6)"/>
      <path id="Path_99735" data-name="Path 99735" d="M12.828,35.829a1,1,0,0,1-.682-.269,4.817,4.817,0,0,1,0-7.12A1,1,0,1,1,13.51,29.9a2.817,2.817,0,0,0,0,4.194,1,1,0,0,1-.682,1.732Z" transform="translate(0 5.997)"/>
      <path id="Path_99736" data-name="Path 99736" d="M6.76,41.484a1,1,0,0,1-.683-.269,12.453,12.453,0,0,1,0-18.43,1,1,0,1,1,1.365,1.462,10.453,10.453,0,0,0,0,15.506,1,1,0,0,1-.682,1.731Z" transform="translate(0 6)"/>
      <path id="Path_99737" data-name="Path 99737" d="M9.794,38.656a1,1,0,0,1-.683-.269,8.635,8.635,0,0,1,0-12.774,1,1,0,0,1,1.366,1.462,6.633,6.633,0,0,0,0,9.85,1,1,0,0,1-.683,1.731Z" transform="translate(0 6)"/>
    </g>
  </g>
</svg>
