<svg xmlns="http://www.w3.org/2000/svg" width="100" height="100" viewBox="0 0 100 100">
  <g id="icon-onlineCheck" transform="translate(-519 -185)">
    <g id="delivery-time" transform="translate(533 198.561)">
      <path id="Path_99720" data-name="Path 99720" d="M71.769,60.014l-3.353-12.59a5.634,5.634,0,0,0-5.436-4.181H58.3V18.063a2.438,2.438,0,0,0-2.435-2.435H32.939A16.443,16.443,0,0,0,7.874,2.91,1.054,1.054,0,0,0,8.986,4.7,14.377,14.377,0,1,1,5.547,7.68c.847-1.009-.727-2.409-1.613-1.354A16.441,16.441,0,0,0,13.8,33.113v10.13H9.048a5.633,5.633,0,0,0-5.436,4.181L.259,60.014C-.194,61.721.085,63.761.085,65.5c0,4.074,2.254,6.811,5.61,6.811H66.333c3.271,0,5.556-2.8,5.556-6.811,0-1.7.316-3.852-.12-5.491Zm-38.8-42.28h8.5V30.341l-4.9-2.762a1.052,1.052,0,0,0-1.034,0l-4.9,2.762V25.358a16.337,16.337,0,0,0,2.331-7.625ZM16.536,33.341a16.407,16.407,0,0,0,11.993-5.2v4.006a1.062,1.062,0,0,0,1.57.917L36.05,29.7,42,33.06a1.062,1.062,0,0,0,1.57-.917V17.734h12.29a.33.33,0,0,1,.329.329v37.7a.33.33,0,0,1-.329.329H16.239a.33.33,0,0,1-.329-.329V33.328C16.117,33.336,16.326,33.341,16.536,33.341Zm49.8,36.869H5.695c-2.31,0-3.385-2.186-3.491-4.226A5.729,5.729,0,0,0,5.695,67.1H52.308a1.054,1.054,0,0,0,0-2.106H5.695c-2.557,0-3.714-2.174-3.385-4.494L5.647,47.965a3.525,3.525,0,0,1,3.4-2.617H13.8V55.767A2.438,2.438,0,0,0,16.239,58.2H55.861A2.438,2.438,0,0,0,58.3,55.767V45.348H62.98a3.525,3.525,0,0,1,3.4,2.617l3.353,12.59a3.585,3.585,0,0,1-3.4,4.435h-8.41a1.054,1.054,0,0,0,0,2.106h8.41a5.579,5.579,0,0,0,3.439-1.174C69.662,67.987,68.718,70.21,66.333,70.21Z" transform="translate(0)"/>
      <path id="Path_99721" data-name="Path 99721" d="M280.275,286.376h10.981a1.053,1.053,0,0,0,1.053-1.053v-11.41a1.053,1.053,0,0,0-1.053-1.053H280.275a1.053,1.053,0,0,0-1.053,1.053v11.41A1.053,1.053,0,0,0,280.275,286.376Zm1.053-11.41H290.2v9.3h-8.875Z" transform="translate(-240.024 -234.177)"/>
      <path id="Path_99722" data-name="Path 99722" d="M141.8,356.245h9.716a1.054,1.054,0,0,0,0-2.106H141.8A1.054,1.054,0,0,0,141.8,356.245Z" transform="translate(-121.026 -304.046)"/>
      <path id="Path_99723" data-name="Path 99723" d="M141.8,322.256H154.28a1.054,1.054,0,0,0,0-2.106H141.8A1.054,1.054,0,0,0,141.8,322.256Z" transform="translate(-121.026 -274.829)"/>
      <path id="Path_99724" data-name="Path 99724" d="M43.729,55.658a12.1,12.1,0,1,0-12.1-12.095A12.109,12.109,0,0,0,43.729,55.658Zm0-22.084a9.989,9.989,0,1,1-9.989,9.989,10,10,0,0,1,9.989-9.989Z" transform="translate(-27.193 -26.673)"/>
      <path id="Path_99725" data-name="Path 99725" d="M75.2,79.952a1.05,1.05,0,0,0,.764-.328l3.19-3.361A2.986,2.986,0,1,0,81.334,70.7V67.3a1.054,1.054,0,0,0-2.106,0v3.4a2.976,2.976,0,0,0-1.617,4.127l-3.174,3.343a1.059,1.059,0,0,0,.763,1.778Zm5.08-5.573a.883.883,0,1,1,.882-.882A.883.883,0,0,1,80.281,74.379Z" transform="translate(-63.745 -56.607)"/>
    </g>
    <g id="Rectangle_24494" data-name="Rectangle 24494" transform="translate(519 185)" fill="#fff" stroke="#707070" stroke-width="1" opacity="0">
      <rect width="100" height="100" stroke="none"/>
      <rect x="0.5" y="0.5" width="99" height="99" fill="none"/>
    </g>
  </g>
</svg>
