<svg xmlns="http://www.w3.org/2000/svg" width="100" height="100" viewBox="0 0 100 100">
  <g id="icon-wifi" transform="translate(-189 -461)">
    <g id="Rectangle_24497" data-name="Rectangle 24497" transform="translate(189 461)" fill="#fff" stroke="#707070" stroke-width="1" opacity="0">
      <rect width="100" height="100" stroke="none"/>
      <rect x="0.5" y="0.5" width="99" height="99" fill="none"/>
    </g>
    <g id="internet" transform="translate(203 475)">
      <path id="Path_99738" data-name="Path 99738" d="M60.833,129.361A33.869,33.869,0,0,1,10.755,83.749a1.065,1.065,0,0,0-1.588-1.421A36,36,0,0,0,62.395,130.81a1.065,1.065,0,0,0-1.562-1.449Z" transform="translate(0 -70.329)"/>
      <path id="Path_99739" data-name="Path 99739" d="M133.479,10.544A36,36,0,0,0,84.312,8.911a1.065,1.065,0,1,0,1.4,1.6,33.871,33.871,0,0,1,49.891,45.145,1.065,1.065,0,1,0,1.734,1.238,36.006,36.006,0,0,0-3.862-46.352Z" transform="translate(-72.023)"/>
      <path id="Path_99740" data-name="Path 99740" d="M46.4,89.79a30.686,30.686,0,1,0-8.988-21.7A30.485,30.485,0,0,0,46.4,89.79Zm21.7-50.253A28.555,28.555,0,1,1,39.539,68.092,28.588,28.588,0,0,1,68.094,39.537Z" transform="translate(-32.094 -32.092)"/>
      <path id="Path_99741" data-name="Path 99741" d="M90.246,147.207l22.064,22.064a1.065,1.065,0,0,0,1.5.007l17.037-16.745,5.217-5.127a1.065,1.065,0,0,0,.013-1.507l-.2-.2a32.418,32.418,0,0,0-45.635,0A1.065,1.065,0,0,0,90.246,147.207Zm29.839,12.916a11.007,11.007,0,0,0-13.971-.062l-3.559-3.559a16.065,16.065,0,0,1,21.122.091Zm-1.527,1.5-5.488,5.394-5.441-5.441a8.887,8.887,0,0,1,10.929.047ZM125.2,155.1a18.19,18.19,0,0,0-24.153-.1l-3.35-3.35a22.956,22.956,0,0,1,30.881.134Zm-12.135-16.656a29.919,29.919,0,0,1,20.734,8.2l-3.7,3.638a25.078,25.078,0,0,0-33.908-.147l-3.669-3.669A29.922,29.922,0,0,1,113.063,138.441Z" transform="translate(-77.158 -116.946)"/>
    </g>
  </g>
</svg>
