<svg xmlns="http://www.w3.org/2000/svg" width="100" height="100" viewBox="0 0 100 100">
  <g id="icon-pencil" transform="translate(-620 782)">
    <g id="Rectangle_24491" data-name="Rectangle 24491" transform="translate(620 -782)" fill="#fff" stroke="#707070" stroke-width="1" opacity="0">
      <rect width="100" height="100" stroke="none"/>
      <rect x="0.5" y="0.5" width="99" height="99" fill="none"/>
    </g>
    <g id="Group_538" data-name="Group 538" transform="translate(640 -762)">
      <g id="Group_533" data-name="Group 533" transform="translate(3.116)">
        <path id="Path_2310" data-name="Path 2310" d="M1197.344,428.593a1.2,1.2,0,0,1-.85-.353l-13.46-13.459a1.2,1.2,0,0,1,0-1.7l41.021-41.021a1.2,1.2,0,0,1,1.7,0l13.459,13.46a1.2,1.2,0,0,1,0,1.7l-41.021,41.02A1.2,1.2,0,0,1,1197.344,428.593Zm-11.761-14.662,11.761,11.76,39.321-39.321L1224.9,374.61Z" transform="translate(-1182.682 -371.708)" fill="#090909"/>
      </g>
      <g id="Group_534" data-name="Group 534" transform="translate(13.486 19.724)">
        <path id="Path_2311" data-name="Path 2311" d="M1190.238,413.95a.934.934,0,0,1-.661-1.6l24.922-24.922a.934.934,0,0,1,1.322,1.321L1190.9,413.676A.932.932,0,0,1,1190.238,413.95Z" transform="translate(-1189.303 -387.159)" fill="#090909"/>
      </g>
      <g id="Group_535" data-name="Group 535" transform="translate(0 44.548)">
        <path id="Path_2312" data-name="Path 2312" d="M1179.676,427.519a.952.952,0,0,1-.209-.024.935.935,0,0,1-.7-1.12l3.116-13.583a.934.934,0,1,1,1.821.418l-3.115,13.583A.935.935,0,0,1,1179.676,427.519Z" transform="translate(-1178.74 -412.067)" fill="#090909"/>
      </g>
      <g id="Group_536" data-name="Group 536" transform="translate(0 55.015)">
        <path id="Path_2313" data-name="Path 2313" d="M1179.674,430.294a.935.935,0,0,1-.208-1.846l13.582-3.115a.935.935,0,1,1,.418,1.822l-13.583,3.115A.956.956,0,0,1,1179.674,430.294Z" transform="translate(-1178.74 -425.31)" fill="#090909"/>
      </g>
      <g id="Group_537" data-name="Group 537" transform="translate(40.685 6.979)">
        <path id="Path_2314" data-name="Path 2314" d="M1225.614,392.873a.931.931,0,0,1-.661-.273l-10.468-10.467a.934.934,0,0,1,1.322-1.322l10.468,10.467a.934.934,0,0,1-.661,1.6Z" transform="translate(-1214.211 -380.537)" fill="#090909"/>
      </g>
    </g>
  </g>
</svg>
