<svg xmlns="http://www.w3.org/2000/svg" xmlns:xlink="http://www.w3.org/1999/xlink" width="141" height="42" viewBox="0 0 141 42">
  <defs>
    <linearGradient id="linear-gradient" x1="0.5" x2="0.5" y2="1" gradientUnits="objectBoundingBox">
      <stop offset="0" stop-color="#d50918"/>
      <stop offset="1" stop-color="#ff4b2b"/>
    </linearGradient>
  </defs>
  <g id="jb-logo" transform="translate(22992 3129)">
    <rect id="Rectangle_24488" data-name="Rectangle 24488" width="141" height="42" transform="translate(-22992 -3129)" fill="#fff" opacity="0"/>
    <g id="jobbank-logo" transform="translate(-22985.537 -3124.961)">
      <path id="Subtraction_8" data-name="Subtraction 8" d="M119.9,8.561H53.286V0H119.9V8.56ZM94.857,2.91a1.648,1.648,0,0,0-1.631,1.5,1.682,1.682,0,0,0,.017.392,2.018,2.018,0,0,0,.433,1.3,1.76,1.76,0,0,0,1.3.584h.013a.414.414,0,0,0,.068-.005,1.879,1.879,0,0,0,.872-.217,1.391,1.391,0,0,0,.8-1.089L96,5.315a.919.919,0,0,1-.918.875h-.008a.777.777,0,0,1-.092,0c-.733,0-1.089-.452-1.089-1.38,0-.955.359-1.38,1.163-1.38h.028a.859.859,0,0,1,.844.727l.654-.071a.845.845,0,0,0-.22-.584,1.572,1.572,0,0,0-1.223-.582h-.148C94.947,2.912,94.9,2.91,94.857,2.91Zm14.652.152h0v.509h.508V5.6a1.7,1.7,0,0,0,.148.8c.065.2.31.287.8.287a1,1,0,0,0,.2-.03,1.434,1.434,0,0,1,.3-.041l-.073-.433h-.328a.434.434,0,0,1-.327-.148.533.533,0,0,1-.073-.361V3.571h.654V3.063h-.654V1.827l-.652.363v.872Zm-7.915,0h0V6.691h.651V4.806a1.59,1.59,0,0,1,.145-.872c0-.142.134-.211.276-.284l.015-.008a1.331,1.331,0,0,1,.51-.146.424.424,0,0,1,.068,0,.588.588,0,0,1,.512.3c.071.07.071.293.071.509V6.62h.727V4.514a1,1,0,0,1,.147-.656.948.948,0,0,1,.744-.364h.057c.387,0,.582.088.655.293a1.293,1.293,0,0,1,.071.579V6.619h.728v-2.4a1.117,1.117,0,0,0-.986-1.235c-.043,0-.085-.006-.124-.006a1.009,1.009,0,0,0-.124.007H105.7a1.417,1.417,0,0,0-1.2.655,1.163,1.163,0,0,0-1.05-.661.755.755,0,0,0-.112.006h-.015a1.418,1.418,0,0,0-1.145.584V3.063h-.582Zm-35.239.044v0l1.2,3.523h.727l.779-2.767v.07c.062.261.132.469.145.508l.655,2.182h.727l1.23-3.635H71.1L70.441,5.1a.458.458,0,0,1-.045.2.272.272,0,0,0-.026.094,2,2,0,0,1-.08.191l-.005.011a.515.515,0,0,0-.064.231.432.432,0,0,1-.089-.221c-.015-.071-.034-.142-.056-.212a.471.471,0,0,0-.041-.188V5.194a.224.224,0,0,1-.028-.1L69.422,2.99h-.651L68.116,5.1l-.075.146a4.981,4.981,0,0,1-.145.58,3.476,3.476,0,0,1-.218-.58L67.023,2.99h-1.3L65.071,5.1a.453.453,0,0,1-.049.2l0,.013A.206.206,0,0,0,65,5.389a2.036,2.036,0,0,1-.081.2l0,.013a.541.541,0,0,0-.059.222.424.424,0,0,1-.088-.218V5.6c-.018-.077-.036-.143-.055-.207a.456.456,0,0,0-.044-.189V5.194a.245.245,0,0,1-.03-.1l-.655-2.107h-.651L62.673,5.1l-.071.146a5.7,5.7,0,0,1-.145.579,3.032,3.032,0,0,1-.222-.579l-.647-2.253h-1.38L59.553,5.1a.459.459,0,0,1-.046.2.287.287,0,0,0-.025.094,1.549,1.549,0,0,1-.081.2V5.6a.5.5,0,0,0-.063.223.41.41,0,0,1-.08-.212V5.6l-.012-.047c-.013-.05-.027-.105-.049-.166a.459.459,0,0,0-.044-.194.259.259,0,0,1-.027-.1l-.58-2.107h-.655L57.238,5.1l-.071.146a5.7,5.7,0,0,1-.145.579,2.857,2.857,0,0,1-.218-.579l-.654-2.253h-.727l1.235,3.635h.727l.8-2.762v.076c.072.277.144.5.146.509l.655,2.181h.727l1.2-3.525,1.2,3.525h.727l.8-2.762v.076c.072.282.144.506.145.508l.655,2.181h.727l1.2-3.523ZM98.907,6.621h0a1.358,1.358,0,0,0,.145.005A1.746,1.746,0,0,0,100.8,4.888c0-.061,0-.11-.007-.156a2.351,2.351,0,0,0-.58-1.527,2.27,2.27,0,0,0-1.234-.363H98.9a1.925,1.925,0,0,0-1.373.582,2.056,2.056,0,0,0-.438,1.31,1.723,1.723,0,0,0,.368,1.31,2.031,2.031,0,0,0,1.416.58Zm12.633-3.632,1.235,3.635h.728l.791-2.754h0v.064c.058.223.115.411.143.5l0,.006.654,2.181h.728l1.235-3.635h-.721L115.683,5.1a.459.459,0,0,1-.047.2.272.272,0,0,0-.025.094,2,2,0,0,1-.081.191l0,.011a.526.526,0,0,0-.065.231.443.443,0,0,1-.088-.221c-.014-.067-.033-.136-.057-.212a.456.456,0,0,0-.044-.189V5.194a.259.259,0,0,1-.03-.1l-.579-2.107h-.656L113.361,5.1l-.076.146a4.852,4.852,0,0,1-.145.579,3.379,3.379,0,0,1-.217-.579l-.655-2.253Zm-3.558,2.9h0v.727h.8V5.894Zm-16.484,0h0v.727h.8V5.894Zm-19.028,0h0v.727h.8V5.894ZM88.813,2.7V6.62h.728V1.612H89.1a3.219,3.219,0,0,1-1.6,1.235v.58A3.75,3.75,0,0,0,88.811,2.7ZM84.6,2.7V6.62h.728V1.612h-.434a3.228,3.228,0,0,1-1.6,1.235v.58A3.772,3.772,0,0,0,84.6,2.7Zm-4.212,0V6.62h.727V1.612h-.438a3.161,3.161,0,0,1-1.593,1.235v.58a3.766,3.766,0,0,0,1.3-.726Zm-4.213,0V6.62H76.9V1.612h-.434a3.24,3.24,0,0,1-1.6,1.235v.58a3.706,3.706,0,0,0,1.3-.726Zm-23.9,5.86h-8.26V0h8.26V8.56Zm-9.27,0H37.451V0h5.555V8.56Zm-6.565,0H28.18V0h8.261V8.56Zm-9.271,0H21.961V0H27.17V8.56Zm-6.219,0H12.69V0h8.261V8.56Zm-9.27,0H6.129V0h5.552V8.56Zm-6.561,0H0V0H5.12V8.56ZM98.99,6.193h0v0h-.1a1.234,1.234,0,0,1-.7-.217,1.549,1.549,0,0,1-.438-1.164,1.293,1.293,0,0,1,.434-1.093,1.246,1.246,0,0,1,.708-.217h.074a1.087,1.087,0,0,1,.745.293,1.434,1.434,0,0,1,.363,1.018,1.564,1.564,0,0,1-.218.872A1,1,0,0,1,98.99,6.193Z" transform="translate(7.276 22.765)" fill="#1a1e1e" stroke="rgba(0,0,0,0)" stroke-miterlimit="10" stroke-width="1"/>
      <path id="Path_99706" data-name="Path 99706" d="M-198.2,21.835h-9.271V2.338l-.139-1.905A2.186,2.186,0,0,0-209.6-.849c-.07,0-.141,0-.211.01l-.024,0h-.024a.675.675,0,0,1-.7-.371.523.523,0,0,1-.024-.27V-5.638c0-.522.572-.748.934-.839a13.574,13.574,0,0,0,5.641-3.892l.151-.175h5.662v32.38Z" transform="translate(211.099 11.05)" fill="url(#linear-gradient)"/>
      <path id="Path_99707" data-name="Path 99707" d="M-203.749-10.16a14.053,14.053,0,0,1-5.877,4.047s-.575.138-.575.355v4.234s-.074.063.22.063a2.556,2.556,0,0,1,.259-.013A2.7,2.7,0,0,1-207.231.19l.147,2.01V21.21h8.261V-10.16h-4.926m-.463-1.01h6.4V22.22h-10.28V2.237l-.131-1.791a1.681,1.681,0,0,0-1.5-.911c-.054,0-.109,0-.162.008l-.048,0h-.048a1.111,1.111,0,0,1-1.174-.7,1.023,1.023,0,0,1-.056-.478V-5.758c0-.3.128-1.021,1.289-1.322a13.068,13.068,0,0,0,5.408-3.739Z" transform="translate(211.219 11.17)" fill="#fff"/>
      <path id="Path_99708" data-name="Path 99708" d="M-178.6,21.835h-9.271V2.338l-.139-1.905A2.185,2.185,0,0,0-190-.849c-.07,0-.141,0-.212.01l-.023,0h-.024a.675.675,0,0,1-.7-.371.523.523,0,0,1-.024-.27V-5.638c0-.522.571-.748.933-.839a13.569,13.569,0,0,0,5.641-3.892l.151-.175h5.662v32.38Z" transform="translate(207.329 11.05)" fill="url(#linear-gradient)"/>
      <path id="Path_99709" data-name="Path 99709" d="M-184.147-10.16a14.053,14.053,0,0,1-5.877,4.047s-.575.138-.575.355v4.234s-.073.063.22.063a2.533,2.533,0,0,1,.259-.013A2.7,2.7,0,0,1-187.629.19l.146,2.01V21.21h8.261V-10.16h-4.925m-.463-1.01h6.4V22.22h-10.28V2.237l-.13-1.791a1.682,1.682,0,0,0-1.5-.911c-.054,0-.109,0-.163.008l-.048,0h-.048a1.112,1.112,0,0,1-1.174-.7,1.022,1.022,0,0,1-.055-.478V-5.758c0-.3.127-1.021,1.289-1.322a13.073,13.073,0,0,0,5.408-3.739Z" transform="translate(207.449 11.17)" fill="#fff"/>
      <path id="Path_99710" data-name="Path 99710" d="M-159.419,21.835h-9.271V2.338l-.139-1.905a2.186,2.186,0,0,0-1.994-1.283c-.069,0-.141,0-.211.01l-.024,0h-.024a.676.676,0,0,1-.7-.371.514.514,0,0,1-.023-.27V-5.638c0-.522.571-.748.933-.839a13.574,13.574,0,0,0,5.641-3.892l.151-.175h5.662v32.38Z" transform="translate(203.641 11.05)" fill="url(#linear-gradient)"/>
      <path id="Path_99711" data-name="Path 99711" d="M-164.969-10.16a14.053,14.053,0,0,1-5.877,4.047s-.575.138-.575.355v4.234s-.074.063.219.063a2.556,2.556,0,0,1,.259-.013A2.7,2.7,0,0,1-168.451.19l.146,2.01V21.21h8.261V-10.16h-4.925m-.463-1.01h6.4V22.22h-10.28V2.237l-.131-1.791a1.681,1.681,0,0,0-1.5-.911c-.053,0-.108,0-.162.008l-.048,0h-.048a1.111,1.111,0,0,1-1.174-.7,1.022,1.022,0,0,1-.055-.478V-5.758c0-.3.127-1.021,1.289-1.322a13.078,13.078,0,0,0,5.407-3.739Z" transform="translate(203.761 11.17)" fill="#fff"/>
      <path id="Path_99712" data-name="Path 99712" d="M-139.814,21.835h-9.27V2.338l-.14-1.905a2.184,2.184,0,0,0-1.993-1.283c-.07,0-.141,0-.211.01l-.024,0h-.024a.675.675,0,0,1-.7-.371.523.523,0,0,1-.024-.27V-5.638c0-.522.572-.748.934-.839a13.579,13.579,0,0,0,5.641-3.892l.151-.175h5.661v32.38Z" transform="translate(199.871 11.05)" fill="url(#linear-gradient)"/>
      <path id="Path_99713" data-name="Path 99713" d="M-145.364-10.16a14.053,14.053,0,0,1-5.877,4.047s-.575.138-.575.355v4.234s-.073.063.22.063a2.545,2.545,0,0,1,.259-.013A2.7,2.7,0,0,1-148.846.19l.147,2.01V21.21h8.26V-10.16h-4.925m-.463-1.01h6.4V22.22h-10.279V2.237L-149.84.446a1.682,1.682,0,0,0-1.5-.911c-.054,0-.109,0-.163.008l-.048,0h-.048a1.113,1.113,0,0,1-1.174-.7,1.021,1.021,0,0,1-.055-.478V-5.758c0-.3.128-1.021,1.289-1.322a13.068,13.068,0,0,0,5.408-3.739Z" transform="translate(199.991 11.17)" fill="#fff"/>
      <path id="Path_99719" data-name="Path 99719" d="M6.735-12.09C6.63-10.11,6.63-2.955.555.15a4.119,4.119,0,0,1,.9.855,12.422,12.422,0,0,0,6-8.67c.72,3,2.37,6.84,6.24,8.67A3.362,3.362,0,0,1,14.52.09C8.88-2.49,8.07-9.42,7.935-11.4c.015-.255.015-.495.03-.69ZM22.32-9.285v-3.24H21.165v3.24h-4.86v1.11h4.8A10.107,10.107,0,0,1,15.855.33a3.99,3.99,0,0,1,.855.885,11.04,11.04,0,0,0,5.55-9.39h5.115C27.09-2.895,26.76-.78,26.22-.27a.86.86,0,0,1-.69.225c-.375,0-1.335-.015-2.355-.105A2.44,2.44,0,0,1,23.55.99a19.389,19.389,0,0,0,2.4.045,1.648,1.648,0,0,0,1.275-.6c.66-.75.975-2.985,1.305-9.135.015-.165.03-.585.03-.585Zm14.4,7.86-2.34.45v-4.38h2.235V-6.33H34.38V-7.905h1.845v-.96h-4.2a13.453,13.453,0,0,0,1.95-2.67A17.6,17.6,0,0,1,36.3-8.91l.75-.855a19.809,19.809,0,0,0-2.745-2.775h-.99A10.871,10.871,0,0,1,30.39-8.7a4.014,4.014,0,0,1,.7.72c.21-.18.42-.375.615-.57v.645H33.4V-6.33H30.96v.975H33.4V-.8c-1,.18-1.92.36-2.64.48L31.02.69C32.6.375,34.77-.045,36.795-.48ZM31.26-4.3a11.46,11.46,0,0,1,.615,2.79l.84-.24A12.375,12.375,0,0,0,32.04-4.5ZM35.55-1.7c.27-.705.615-1.8.9-2.715l-.87-.27a24.17,24.17,0,0,1-.735,2.73Zm2.9-6.585H42.57v1.77H38.445Zm4.125-2.64v1.665H38.445V-10.92Zm.9,6.015A16.844,16.844,0,0,1,41.55-3.24a15.208,15.208,0,0,1-.735-2.3h2.82v-6.39H37.4V-.36q-.7.158-1.26.27L36.45.975C37.83.66,39.63.21,41.325-.24l-.1-1.02L38.445-.6V-5.535H39.81c.66,3.06,1.9,5.505,4.08,6.705a4.466,4.466,0,0,1,.735-.93A6.175,6.175,0,0,1,41.97-2.4a20.4,20.4,0,0,0,2.265-1.755ZM58.845-11.64h-7.32v1.05h7.32Zm-9.825-.915A14.9,14.9,0,0,1,45.585-9.3a9.684,9.684,0,0,1,.66.885,18.427,18.427,0,0,0,3.84-3.72Zm.615,3.195a16.352,16.352,0,0,1-4.2,4.515,10.686,10.686,0,0,1,.78.93,17.646,17.646,0,0,0,1.695-1.56v6.66h1.11v-7.89A18.864,18.864,0,0,0,50.67-8.97ZM59.28-7.545h-8.4V-6.48h5.01V-.3c0,.255-.09.315-.375.33S54.24.045,53.175.015a3.975,3.975,0,0,1,.36,1.08A11.33,11.33,0,0,0,56.355.93c.495-.18.66-.525.66-1.215V-6.48H59.28Z" transform="translate(65.537 16.961)" fill="#1a1e1e"/>
    </g>
  </g>
</svg>
