<svg xmlns="http://www.w3.org/2000/svg" width="245" height="67" viewBox="0 0 245 67">
  <g id="_1hr-logo" data-name="1hr-logo" transform="translate(-63.025 -36.706)">
    <g id="Group_489" data-name="Group 489" transform="translate(63.025 86.894)">
      <rect id="Rectangle_331" data-name="Rectangle 331" width="245" height="16.812" fill="#b22223"/>
    </g>
    <g id="Group_490" data-name="Group 490" transform="translate(65.575 91.127)">
      <path id="Path_2242" data-name="Path 2242" d="M67.039,93.482H65.5V87.629a5.362,5.362,0,0,1-2,1.176v-1.41a4.442,4.442,0,0,0,1.314-.755,2.854,2.854,0,0,0,.973-1.3h1.252Z" transform="translate(-63.5 -85.344)" fill="#fff"/>
    </g>
    <g id="Group_491" data-name="Group 491" transform="translate(70.625 91.127)">
      <path id="Path_2243" data-name="Path 2243" d="M71.58,93.482H70.035V87.629a5.353,5.353,0,0,1-2,1.176v-1.41a4.441,4.441,0,0,0,1.313-.755,2.846,2.846,0,0,0,.973-1.3H71.58Z" transform="translate(-68.04 -85.344)" fill="#fff"/>
    </g>
    <g id="Group_492" data-name="Group 492" transform="translate(75.675 91.127)">
      <path id="Path_2244" data-name="Path 2244" d="M76.12,93.482H74.575V87.629A5.357,5.357,0,0,1,72.581,88.8v-1.41a4.438,4.438,0,0,0,1.312-.755,2.857,2.857,0,0,0,.974-1.3H76.12Z" transform="translate(-72.581 -85.344)" fill="#fff"/>
    </g>
    <g id="Group_493" data-name="Group 493" transform="translate(80.725 91.127)">
      <path id="Path_2245" data-name="Path 2245" d="M80.66,93.482H79.115V87.629A5.357,5.357,0,0,1,77.121,88.8v-1.41a4.442,4.442,0,0,0,1.314-.755,2.852,2.852,0,0,0,.972-1.3H80.66Z" transform="translate(-77.121 -85.344)" fill="#fff"/>
    </g>
    <path id="Path_2246" data-name="Path 2246" d="M80.584,36.762H74.035a.668.668,0,0,0-.517.244,19.42,19.42,0,0,1-7.549,5.3c-.822.241-1.241.641-1.212,1.159.012.244.006,3.478,0,5.635a.713.713,0,0,0,.04.375.939.939,0,0,0,.953.488h.136a2.739,2.739,0,0,1,2.847,1.666c.162,1.754.167,2.268.162,2.4a.68.68,0,0,0-.019.158V79.956a.674.674,0,0,0,.673.677H80.584a.675.675,0,0,0,.672-.677V37.439A.674.674,0,0,0,80.584,36.762Z" transform="translate(2.215 0.007)" fill="#b22223"/>
    <g id="Group_38318" data-name="Group 38318" transform="translate(83.053 36.706)">
      <path id="Path_2230" data-name="Path 2230" d="M158.277,76.9h-1.843V69.911a6.359,6.359,0,0,1-2.38,1.406V69.635a5.314,5.314,0,0,0,1.567-.9,3.427,3.427,0,0,0,1.161-1.546h1.495Z" transform="translate(-70.818 -33.082)" fill="#1a1e1e"/>
      <path id="Path_2231" data-name="Path 2231" d="M164.185,76.9h-1.843V69.911a6.351,6.351,0,0,1-2.38,1.406V69.635a5.3,5.3,0,0,0,1.567-.9,3.419,3.419,0,0,0,1.161-1.546h1.495Z" transform="translate(-70.155 -33.082)" fill="#1a1e1e"/>
      <path id="Path_2232" data-name="Path 2232" d="M170.093,76.9H168.25V69.911a6.351,6.351,0,0,1-2.38,1.406V69.635a5.3,5.3,0,0,0,1.567-.9,3.416,3.416,0,0,0,1.16-1.546h1.5Z" transform="translate(-69.492 -33.082)" fill="#1a1e1e"/>
      <path id="Path_2233" data-name="Path 2233" d="M176,76.9h-1.841V69.911a6.368,6.368,0,0,1-2.382,1.406V69.635a5.3,5.3,0,0,0,1.568-.9,3.426,3.426,0,0,0,1.161-1.546H176Z" transform="translate(-68.829 -33.082)" fill="#1a1e1e"/>
      <path id="Path_2234" data-name="Path 2234" d="M189.568,76.829l-.774.99a14.772,14.772,0,0,1-5.161-6.275q-.971,3.681-5.141,6.2l-.807-.984q5.29-3.318,5.292-8.661V65.942h1.272V68.72a7.507,7.507,0,0,0,1.465,4.319A15.35,15.35,0,0,0,189.568,76.829Z" transform="translate(-68.167 -33.23)" fill="#1a1e1e"/>
      <path id="Path_2235" data-name="Path 2235" d="M201.5,68.23q-.012,3.622-.163,5.827a9.421,9.421,0,0,1-.42,2.728,1.609,1.609,0,0,1-.711.741,5.5,5.5,0,0,1-1.979.219c-.306,0-.6-.008-.891-.021l-.458-1.253q.662.039,2.228.039a.783.783,0,0,0,.457-.139.729.729,0,0,0,.278-.349,9.95,9.95,0,0,0,.19-1.521q.112-1.309.158-2.616l.071-2.5h-3.895a10.679,10.679,0,0,1-1.355,5.059,10.216,10.216,0,0,1-3.723,3.3l-.805-1a9.263,9.263,0,0,0,3.171-2.487,8.6,8.6,0,0,0,1.5-4.877H190.9V68.23h4.321q.078-1.054.059-2.328h1.233q0,1-.079,2.328Z" transform="translate(-66.731 -33.235)" fill="#1a1e1e"/>
      <path id="Path_2236" data-name="Path 2236" d="M214.368,70.065l-.564,1.082a8.862,8.862,0,0,1-1.168-.338V75.89h-5.667l.578.672a17.292,17.292,0,0,1-4.473,1.3L202.5,76.78a15.657,15.657,0,0,0,3.666-.891H204.19V70.784h2.537l-.511-.746a6.148,6.148,0,0,0,3.508-2.106l1.22.271a2.1,2.1,0,0,1-.3.457A10.843,10.843,0,0,0,214.368,70.065Zm-7.858-.376H202.6V68.58h3.908Zm-.117-2.151h-3.615V66.455h3.615Zm5.036,4.677V71.74h-5.987v.476Zm0,1.378v-.5h-5.987v.5Zm0,1.405v-.528h-5.987V75Zm2.7-7.31a15.732,15.732,0,0,1-1.173,1.512l-1.017-.606q.17-.2.721-.905h-4.23a10.856,10.856,0,0,1-1.18,1.188l-.911-.785a8.1,8.1,0,0,0,2-2.3l1.1.376a1.3,1.3,0,0,1-.257.474h4.945ZM212.5,70.784a10.561,10.561,0,0,1-2.624-1.3,7.143,7.143,0,0,1-2.183,1.3Zm1.784,6.089-.643,1.043a20.711,20.711,0,0,0-3.934-.826l.614-1.015A17.137,17.137,0,0,1,214.289,76.873Z" transform="translate(-65.383 -33.247)" fill="#1a1e1e"/>
      <path id="Path_2237" data-name="Path 2237" d="M217.845,73.29a26.6,26.6,0,0,1-1.528,4.414l-1.037-.741a25.973,25.973,0,0,0,1.489-4.42Zm.334-2.422-.772,1.017a8.767,8.767,0,0,0-2.1-1.61l.727-1A9.6,9.6,0,0,1,218.178,70.868Zm.086-3.16-.832.944a9.584,9.584,0,0,0-2-1.894l.873-.9A11.776,11.776,0,0,1,218.264,67.708Zm8.729-.461h-2.924q-.152.455-.406,1.055h2.931V73.29h-2.472V76.8a.772.772,0,0,1-.345.7,2.183,2.183,0,0,1-1.131.219c-.24,0-.465-.008-.675-.026l-.485-1.214q.472.032.9.032a.924.924,0,0,0,.466-.065.278.278,0,0,0,.071-.213V73.29h-2.45V68.3h1.783a8.738,8.738,0,0,0,.4-1.055h-2.883v4.591a12.305,12.305,0,0,1-1.334,5.978l-1.017-.68a12.109,12.109,0,0,0,1.156-5.415v-5.6h8.419Zm-4.728,7.079a11.6,11.6,0,0,1-1.836,2.909l-.984-.811a9.433,9.433,0,0,0,1.694-2.72Zm3.155-4.064v-.931h-3.771v.931Zm0,1.972v-.962h-3.771v.962Zm1.764,4.243-1.05.772a15.252,15.252,0,0,0-1.345-2.963l1.023-.594A13.769,13.769,0,0,1,227.184,76.477Z" transform="translate(-63.948 -33.24)" fill="#1a1e1e"/>
      <path id="Path_2238" data-name="Path 2238" d="M233.91,67.727h-3.548a10.413,10.413,0,0,1-1.487,1.393l-.781-.977a5.159,5.159,0,0,0,2.039-2.3l1.213.323a3.093,3.093,0,0,1-.269.542h2.833Zm5.653,4.011h-1.18v-1.3h-8.715v1.3H228.48v-2.3h4.84a4.209,4.209,0,0,0-.327-.606l1.37-.218a6.026,6.026,0,0,1,.433.825h4.767Zm-1.22,5.443h-7.135v.54h-1.167v-6.6H237.9V73.7h-6.689v.719h7.135Zm-5.672-8.294-1.311.245a7.075,7.075,0,0,0-.564-.95l1.272-.263A5.814,5.814,0,0,1,232.671,68.887ZM236.7,72.82v-.784h-5.5v.784Zm.439,3.443v-.942h-5.936v.942Zm2.754-8.536h-4.139a6.846,6.846,0,0,1-.761.957l-1.089-.58a7.741,7.741,0,0,0,1.567-2.3l1.215.35c-.113.233-.212.418-.3.555h3.5Zm-1.8,1.241-1.29.2a5.358,5.358,0,0,0-.513-1.055l1.308-.147A7.4,7.4,0,0,1,238.1,68.968Z" transform="translate(-62.511 -33.246)" fill="#1a1e1e"/>
      <path id="Path_2239" data-name="Path 2239" d="M244.969,74.808a32.416,32.416,0,0,1-3.738,1.945l-.414-1.147c.325-.129.855-.371,1.6-.733V71.508h-1.291V70.386h1.291V67.715h-1.495V66.633h4.021v1.082h-1.371v2.671h1.167v1.122h-1.167v2.745a9.353,9.353,0,0,0,1.358-.713Zm7.64,2.579h-7.692v-1.1h3.3V74.959h-2.833V73.891h2.833V72.729h-2.747V66.244h6.63v6.485h-2.708v1.161h2.9v1.069h-2.9v1.333h3.22Zm-4.394-8.458V67.313h-1.567v1.617Zm0,2.731V69.906h-1.567v1.754Zm2.716-2.731V67.313h-1.542v1.617Zm0,2.731V69.906h-1.542v1.754Z" transform="translate(-61.083 -33.194)" fill="#1a1e1e"/>
      <path id="Path_2240" data-name="Path 2240" d="M257.937,75.034a14.042,14.042,0,0,1-3.691,2.1l-.716-.969a13.154,13.154,0,0,0,3.509-1.907ZM265.1,73.72l-1,.719c-.309-.444-.557-.774-.74-.99q-1.888.24-3.307.338v2.758a1.031,1.031,0,0,1-.325.866,4.008,4.008,0,0,1-2.127.32l-.473-1.2c.486.036.942.051,1.37.051.241,0,.361-.115.361-.349V73.9q-2.756.139-4.092.159l-.282-1.036a20.453,20.453,0,0,0,3.961-1.676q-2.354.121-3.344.12l-.19-.878a13.267,13.267,0,0,0,4.932-2.811l1.1.634a11.692,11.692,0,0,1-3.265,2.011l1.061-.051,1.62-.125a5.026,5.026,0,0,0,.9-.575l.93-.691,1.051.732a23.955,23.955,0,0,1-5.935,3.226q2.346-.1,5.194-.454c-.228-.243-.494-.5-.794-.772l1.061-.606A16.776,16.776,0,0,1,265.1,73.72Zm-4.12-7.23a15.213,15.213,0,0,1-5.664,2.638l-.69-1.028a13.774,13.774,0,0,0,5.345-2.257Zm4.409,9.823-.806.912a17.3,17.3,0,0,0-3.536-2.231l.833-.838A20.3,20.3,0,0,1,265.394,76.313Z" transform="translate(-59.657 -33.242)" fill="#1a1e1e"/>
      <path id="Path_2241" data-name="Path 2241" d="M268.176,74.584a10.518,10.518,0,0,1-.859,3.246l-1.011-.462a9.773,9.773,0,0,0,.879-2.97Zm3.265-.892-1.049.364a6.959,6.959,0,0,0-.145-.7,25.931,25.931,0,0,1-3.548.8l-.2-.923a13.292,13.292,0,0,0,2.419-2.765c-.713.11-1.4.19-2.072.237l-.145-.791a12.9,12.9,0,0,0,2.4-4.058l1.113.4a14.411,14.411,0,0,1-1.941,3.332q.689-.06,1.286-.158a7.683,7.683,0,0,0,.643-1.188l1.037.54a19.506,19.506,0,0,1-2.833,4.038,11.175,11.175,0,0,0,1.547-.422q-.138-.389-.217-.581l.925-.4A9.735,9.735,0,0,1,271.441,73.692Zm-1.507,3.583-1.018.23a11.783,11.783,0,0,0-.334-2.908l.924-.245A15.913,15.913,0,0,1,269.934,77.275Zm1.56-1.148-.9.364a9.118,9.118,0,0,0-.524-1.907l.886-.337A6.934,6.934,0,0,1,271.494,76.127Zm6.852-1.57a11.9,11.9,0,0,1-.242,2.332,2.328,2.328,0,0,1-.4.487,2.212,2.212,0,0,1-1.38.275,1.847,1.847,0,0,1-1.208-.275,1.591,1.591,0,0,1-.287-1.118V71.707c-.442.071-.782.12-1.023.152a18.531,18.531,0,0,1-.138,2.46A5.4,5.4,0,0,1,273,76.25a5.728,5.728,0,0,1-1.413,1.645l-.861-.824a4.561,4.561,0,0,0,1.08-1.108,4.461,4.461,0,0,0,.7-1.538,10.024,10.024,0,0,0,.171-2.435l-1.18.132-.218-.891a14.333,14.333,0,0,0,1.871-2.955H271.16v-1.11h2.446q.163-.381.439-1.245l1.228.191q-.232.653-.395,1.054h3.332v1.11h-3.817a16.458,16.458,0,0,1-1.541,2.633,24.162,24.162,0,0,0,3.155-.39,6.584,6.584,0,0,0-.7-.891l.951-.627a16.251,16.251,0,0,1,1.974,2.811l-.991.667c-.236-.441-.442-.8-.623-1.07l-.682.12v4.743q0,.331.6.33c.319,0,.513-.12.583-.357a12.453,12.453,0,0,0,.165-2.064Z" transform="translate(-58.223 -33.24)" fill="#1a1e1e"/>
      <g id="Group_494" data-name="Group 494">
        <path id="Path_2247" data-name="Path 2247" d="M117.94,36.755h-8.755a.682.682,0,0,0-.68.685V52.75H89.327V37.44a.683.683,0,0,0-.68-.685H79.895a.682.682,0,0,0-.68.685v42.5a.681.681,0,0,0,.68.683h8.753a.681.681,0,0,0,.68-.683V61.567H108.5V79.936a.681.681,0,0,0,.68.683h8.755a.68.68,0,0,0,.678-.683V37.44A.682.682,0,0,0,117.94,36.755Z" transform="translate(-79.215 -36.7)" fill="#1a1e1e"/>
        <path id="Path_2248" data-name="Path 2248" d="M151.234,53.144V49.881c0-4.9-1.024-8.255-3.131-10.254-2.071-1.966-5.47-2.921-10.388-2.921H118.959a.682.682,0,0,0-.68.684v7.067a.681.681,0,0,0,.68.684h17.1c3.567,0,4.973.556,5.5.893.612.376.934,1.436.934,3.066v3.559c0,2.327-.776,2.8-1.037,2.961a9.249,9.249,0,0,1-4.692.913H118.959a.682.682,0,0,0-.68.685v7.069a.682.682,0,0,0,.68.685h18.19c2.933,0,3.958.575,4.311.922.27.261.9,1.183.9,4.083v10.2a.682.682,0,0,0,.68.684h7.068a.681.681,0,0,0,.68-.684V68.736c0-3.26-.969-5.774-2.884-7.487a7.06,7.06,0,0,0,1.269-1.081C150.558,58.654,151.234,56.356,151.234,53.144Z" transform="translate(-74.832 -36.706)" fill="#1a1e1e"/>
      </g>
    </g>
    <g id="Group_496" data-name="Group 496" transform="translate(88.494 91.229)">
      <path id="Path_2249" data-name="Path 2249" d="M90.237,93.331q-.435.015-3.055.015H84.107V85.522h6.13V86.2H85.067v2.4H89.74v.744H85.067v3.243h5.171Z" transform="translate(-84.107 -85.425)" fill="#fff" stroke="#fff" stroke-miterlimit="10" stroke-width="0.472"/>
      <path id="Path_2250" data-name="Path 2250" d="M92.678,89.566H90.349V88.9h2.329Z" transform="translate(-83.407 -85.023)" fill="#fff" stroke="#fff" stroke-miterlimit="10" stroke-width="0.472"/>
      <path id="Path_2251" data-name="Path 2251" d="M93.615,85.559h.615v3.67h5.279v-3.67h.523v7.754h-.523V89.96H94.23v3.353h-.6Z" transform="translate(-83.04 -85.42)" fill="#fff" stroke="#fff" stroke-miterlimit="10" stroke-width="0.465"/>
      <path id="Path_2252" data-name="Path 2252" d="M105.2,93.08h-.5v-.3a.967.967,0,0,1-.631.345c-.447.027-.743.041-.888.041-.449,0-.934-.019-1.458-.056a1,1,0,0,1-.744-.463,1.783,1.783,0,0,1-.347-1q-.025-.567-.026-1.367v-2.87h.5V91.42a1.259,1.259,0,0,0,.238.768.692.692,0,0,0,.568.327h2.058a.766.766,0,0,0,.522-.328,1.136,1.136,0,0,0,.211-.7V87.408h.5Z" transform="translate(-82.256 -85.2)" fill="#fff" stroke="#fff" stroke-miterlimit="10" stroke-width="0.472"/>
      <path id="Path_2253" data-name="Path 2253" d="M114.314,90.247v2.842h-.484V89.111a1.286,1.286,0,0,0-.231-.764.673.673,0,0,0-.552-.322H111.81a1.339,1.339,0,0,0-.22-.029,5.057,5.057,0,0,0-.553.029.753.753,0,0,0-.508.352,1.287,1.287,0,0,0-.2.723v3.989H109.8V89.111a1.306,1.306,0,0,0-.226-.764.665.665,0,0,0-.549-.322h-1.25a1.334,1.334,0,0,0-.221-.029,4.794,4.794,0,0,0-.534.029.748.748,0,0,0-.509.323,1.16,1.16,0,0,0-.206.7v4.043h-.484V87.43h.484v.3a.94.94,0,0,1,.6-.318,7.953,7.953,0,0,1,.845-.083h.03q1.166,0,1.247.015a1.358,1.358,0,0,1,1.037.757,1.277,1.277,0,0,1,.765-.689,3.579,3.579,0,0,1,.945-.083h.031q.854,0,1.419.056a1.036,1.036,0,0,1,.729.476,1.745,1.745,0,0,1,.338.986Q114.314,89.4,114.314,90.247Z" transform="translate(-81.671 -85.209)" fill="#fff" stroke="#fff" stroke-miterlimit="10" stroke-width="0.466"/>
      <path id="Path_2254" data-name="Path 2254" d="M119.535,92.8c0,.083,0,.179-.011.29h-.5v-.346a1.532,1.532,0,0,1-.98.387h-2.187a1.231,1.231,0,0,1-.99-.5,1.916,1.916,0,0,1-.4-1.25,1.942,1.942,0,0,1,.387-1.211,1.173,1.173,0,0,1,.913-.523c.323-.008.722-.012,1.2-.012h2.063V89.1a1.291,1.291,0,0,0-.232-.766.673.673,0,0,0-.562-.328h-2.32a.665.665,0,0,0-.516.272,1.262,1.262,0,0,0-.278.653h-.475l.011-.083a1.675,1.675,0,0,1,.346-.977,1.062,1.062,0,0,1,.74-.473,10.4,10.4,0,0,1,1.219-.068h.011q.867,0,1.447.056a1.131,1.131,0,0,1,.77.476,1.539,1.539,0,0,1,.347.986Zm-.507-1.545V90.247h-1.337l-1.862.012a.767.767,0,0,0-.622.3,1.232,1.232,0,0,0-.242.8,1.208,1.208,0,0,0,.252.784.821.821,0,0,0,.628.327c.249.009.635.013,1.156.013h.946A1.064,1.064,0,0,0,119.028,91.254Z" transform="translate(-80.7 -85.209)" fill="#fff" stroke="#fff" stroke-miterlimit="10" stroke-width="0.472"/>
      <path id="Path_2255" data-name="Path 2255" d="M124.591,90.247v2.842h-.5V89.1a1.283,1.283,0,0,0-.232-.765.68.68,0,0,0-.564-.324h-1.509a5.2,5.2,0,0,0-.547.028.765.765,0,0,0-.523.323,1.126,1.126,0,0,0-.211.695v4.033h-.5V87.43h.5v.3a.961.961,0,0,1,.618-.332c.433-.045.725-.068.876-.068h.021q.886,0,1.453.056a1.062,1.062,0,0,1,.747.476,1.7,1.7,0,0,1,.346.979Q124.59,89.39,124.591,90.247Z" transform="translate(-80.079 -85.209)" fill="#fff" stroke="#fff" stroke-miterlimit="10" stroke-width="0.472"/>
      <path id="Path_2256" data-name="Path 2256" d="M135.967,93.343h-.7l-2.317-3.092h-2.987v3.092h-.5v-7.8l4.2.016c.214,0,.452.008.714.027a1.512,1.512,0,0,1,1.242,1,2.929,2.929,0,0,1,.27,1.3,2.879,2.879,0,0,1-.415,1.563,1.422,1.422,0,0,1-1.1.755q-.332.027-.734.04Zm-.619-5.45a1.8,1.8,0,0,0-.456-1.314.905.905,0,0,0-.671-.316h-4.26v3.243h4.26a.947.947,0,0,0,.806-.478A2,2,0,0,0,135.347,87.892Z" transform="translate(-79.018 -85.422)" fill="#fff" stroke="#fff" stroke-miterlimit="10" stroke-width="0.472"/>
      <path id="Path_2257" data-name="Path 2257" d="M141.382,90.205v.373H136.73v.793a1.261,1.261,0,0,0,.232.76.684.684,0,0,0,.565.323H138.8l1.285-.015a.683.683,0,0,0,.565-.32,1.255,1.255,0,0,0,.232-.755v-.016h.5c0,.011,0,.105-.01.291a1.688,1.688,0,0,1-.348.979,1.072,1.072,0,0,1-.742.47q-.572.04-1.454.041h-.01q-.894,0-1.464-.055a1.073,1.073,0,0,1-.742-.474,1.731,1.731,0,0,1-.354-.981q-.025-.549-.026-1.306v-.067q0-1.126.01-1.251a2.26,2.26,0,0,1,.331-1.071,1.024,1.024,0,0,1,.775-.523,13.127,13.127,0,0,1,1.437-.068h.02q.879,0,1.458.056a1.052,1.052,0,0,1,.744.476,1.79,1.79,0,0,1,.347,1Q141.382,89.431,141.382,90.205Zm-.5-.3v-.8a1.283,1.283,0,0,0-.232-.765.68.68,0,0,0-.565-.324H138.8c-.138,0-.563.006-1.276.015a.684.684,0,0,0-.565.321,1.266,1.266,0,0,0-.232.76v.8Z" transform="translate(-78.258 -85.209)" fill="#fff" stroke="#fff" stroke-miterlimit="10" stroke-width="0.472"/>
      <path id="Path_2258" data-name="Path 2258" d="M146.728,91.507a1.937,1.937,0,0,1-.3,1.1,1.01,1.01,0,0,1-.776.5c-.5.045-.985.069-1.451.069h-.031c-.377,0-.806-.025-1.287-.069a1.113,1.113,0,0,1-.746-.483,1.53,1.53,0,0,1-.345-.964v-.1h.475a1.3,1.3,0,0,0,.272.67.664.664,0,0,0,.522.27h1.454q.412-.015.96-.015a.65.65,0,0,0,.552-.3,1.268,1.268,0,0,0,.211-.752,1.345,1.345,0,0,0-.232-.821.737.737,0,0,0-.617-.311l-2.311-.027a1.276,1.276,0,0,1-.891-.346,1.454,1.454,0,0,1-.394-1.09v-.027a1.714,1.714,0,0,1,.29-1.042,1.024,1.024,0,0,1,.775-.435q.6-.055,1.209-.055.817,0,1.457.055a1.035,1.035,0,0,1,.761.5,1.914,1.914,0,0,1,.335,1.048h-.475a1.284,1.284,0,0,0-.274-.657.711.711,0,0,0-.522-.282c-.235-.008-.666-.013-1.293-.013-.2,0-.537.006-1.012.013q-.756.015-.755.87a.748.748,0,0,0,.837.84l2.306.041a1.189,1.189,0,0,1,.914.5,1.861,1.861,0,0,1,.388,1.193Z" transform="translate(-77.635 -85.215)" fill="#fff" stroke="#fff" stroke-miterlimit="10" stroke-width="0.472"/>
      <path id="Path_2259" data-name="Path 2259" d="M152.3,90.247V91.5a2.332,2.332,0,0,1-.341,1.076,1,1,0,0,1-.769.511c-.4.027-.885.041-1.454.041q-.893,0-1.464-.055a1.071,1.071,0,0,1-.741-.474,1.723,1.723,0,0,1-.354-.981q-.025-.549-.026-1.306v-.067q0-1.126.01-1.251a2.272,2.272,0,0,1,.33-1.071,1.026,1.026,0,0,1,.775-.523,13.032,13.032,0,0,1,1.427-.068h.031q.879,0,1.447.056a1.052,1.052,0,0,1,.744.476,1.809,1.809,0,0,1,.353.994c.02.371.03.826.03,1.358Zm-.5,1.105V89.1a1.251,1.251,0,0,0-.238-.764A.691.691,0,0,0,151,88.01h-1.271c-.138,0-.562.006-1.271.015a.7.7,0,0,0-.569.322,1.26,1.26,0,0,0-.237.764v2.256a1.252,1.252,0,0,0,.237.763.7.7,0,0,0,.569.324h1.271q-.135,0,1.271-.015a.691.691,0,0,0,.568-.323A1.249,1.249,0,0,0,151.8,91.352Z" transform="translate(-77.033 -85.209)" fill="#fff" stroke="#fff" stroke-miterlimit="10" stroke-width="0.472"/>
      <path id="Path_2260" data-name="Path 2260" d="M157.3,93.08h-.5v-.3a.969.969,0,0,1-.631.345c-.448.027-.745.041-.89.041q-.671,0-1.457-.056a1,1,0,0,1-.744-.463,1.757,1.757,0,0,1-.346-1q-.027-.567-.027-1.367v-2.87h.5V91.42a1.253,1.253,0,0,0,.239.768.689.689,0,0,0,.568.327h2.056a.766.766,0,0,0,.522-.328,1.136,1.136,0,0,0,.212-.7V87.408h.5Z" transform="translate(-76.41 -85.2)" fill="#fff" stroke="#fff" stroke-miterlimit="10" stroke-width="0.472"/>
      <path id="Path_2261" data-name="Path 2261" d="M159.229,87.956a.466.466,0,0,0-.247.083,1.057,1.057,0,0,0-.5.964q-.01.374,0,.664a1.346,1.346,0,0,0,.01.22V93.1H158l.011-5.672h.485v.222a.927.927,0,0,1,.632-.331h.537v.634Z" transform="translate(-75.816 -85.211)" fill="#fff" stroke="#fff" stroke-miterlimit="10" stroke-width="0.472"/>
      <path id="Path_2262" data-name="Path 2262" d="M165.3,91.349c0,.02,0,.115-.01.291a1.682,1.682,0,0,1-.351.972,1.072,1.072,0,0,1-.734.477q-.559.04-1.447.041h-.011c-.592,0-1.079-.018-1.457-.055a1.062,1.062,0,0,1-.744-.468,1.739,1.739,0,0,1-.347-.988q-.025-.562-.026-1.319v-.054q0-1.126.01-1.251a2.247,2.247,0,0,1,.331-1.071,1.024,1.024,0,0,1,.775-.523,13.024,13.024,0,0,1,1.426-.068h.031c.6,0,1.086.019,1.458.056a1.1,1.1,0,0,1,.75.476,1.573,1.573,0,0,1,.336.986v.084h-.485a1.189,1.189,0,0,0-.268-.656.665.665,0,0,0-.516-.27h-1.279c-.137,0-.561.006-1.269.015a.7.7,0,0,0-.567.322,1.26,1.26,0,0,0-.237.764v2.256a1.252,1.252,0,0,0,.237.763.694.694,0,0,0,.567.324h1.268q-.133,0,1.279-.015a.679.679,0,0,0,.563-.32,1.254,1.254,0,0,0,.231-.755v-.016Z" transform="translate(-75.572 -85.209)" fill="#fff" stroke="#fff" stroke-miterlimit="10" stroke-width="0.472"/>
      <path id="Path_2263" data-name="Path 2263" d="M170.857,90.205v.373h-4.651v.793a1.254,1.254,0,0,0,.234.76.682.682,0,0,0,.564.323h1.276l1.285-.015a.683.683,0,0,0,.565-.32,1.247,1.247,0,0,0,.232-.755v-.016h.5c0,.011,0,.105-.01.291a1.672,1.672,0,0,1-.347.979,1.072,1.072,0,0,1-.743.47q-.571.04-1.453.041h-.011q-.891,0-1.463-.055a1.075,1.075,0,0,1-.743-.474,1.731,1.731,0,0,1-.354-.981q-.025-.549-.024-1.306v-.067q0-1.126.01-1.251a2.26,2.26,0,0,1,.33-1.071,1.026,1.026,0,0,1,.776-.523,13.127,13.127,0,0,1,1.437-.068h.02q.879,0,1.457.056a1.054,1.054,0,0,1,.745.476,1.78,1.78,0,0,1,.346,1Q170.857,89.431,170.857,90.205Zm-.5-.3v-.8a1.275,1.275,0,0,0-.232-.765.68.68,0,0,0-.565-.324h-1.285c-.138,0-.564.006-1.276.015a.682.682,0,0,0-.564.321,1.259,1.259,0,0,0-.234.76v.8Z" transform="translate(-74.951 -85.209)" fill="#fff" stroke="#fff" stroke-miterlimit="10" stroke-width="0.472"/>
      <path id="Path_2264" data-name="Path 2264" d="M176.2,91.507a1.929,1.929,0,0,1-.306,1.1,1.014,1.014,0,0,1-.777.5c-.5.045-.984.069-1.45.069h-.031c-.378,0-.807-.025-1.287-.069a1.115,1.115,0,0,1-.746-.483,1.53,1.53,0,0,1-.345-.964v-.1h.474a1.289,1.289,0,0,0,.274.67.657.657,0,0,0,.52.27h1.455c.276-.01.594-.015.96-.015a.646.646,0,0,0,.551-.3,1.269,1.269,0,0,0,.212-.752,1.338,1.338,0,0,0-.234-.821.735.735,0,0,0-.616-.311l-2.311-.027a1.275,1.275,0,0,1-.891-.346,1.454,1.454,0,0,1-.394-1.09v-.027a1.714,1.714,0,0,1,.289-1.042,1.026,1.026,0,0,1,.775-.435c.4-.037.8-.055,1.21-.055q.814,0,1.457.055a1.041,1.041,0,0,1,.761.5,1.923,1.923,0,0,1,.335,1.048h-.475a1.3,1.3,0,0,0-.274-.657.711.711,0,0,0-.522-.282c-.237-.008-.666-.013-1.294-.013-.2,0-.537.006-1.013.013q-.754.015-.754.87a.748.748,0,0,0,.838.84l2.306.041a1.19,1.19,0,0,1,.914.5A1.861,1.861,0,0,1,176.2,91.4Z" transform="translate(-74.328 -85.215)" fill="#fff" stroke="#fff" stroke-miterlimit="10" stroke-width="0.472"/>
      <path id="Path_2265" data-name="Path 2265" d="M191.017,89.484v3.857h-.538v-5.5a1.776,1.776,0,0,0-.336-1.081,1.021,1.021,0,0,0-.8-.472q-.517.029-1.468.029h-1.137a1.291,1.291,0,0,0-.952.508,1.758,1.758,0,0,0-.32,1.058v5.457h-.536V87.873a1.749,1.749,0,0,0-.337-1.073,1.007,1.007,0,0,0-.8-.469c-.344-.01-.838-.013-1.479-.013h-1.127a1.282,1.282,0,0,0-.95.508,1.75,1.75,0,0,0-.32,1.058v5.457h-.527q-.01-.317-.011-2.462l.011-2.032V85.559h.5v.7a1.444,1.444,0,0,1,1-.649c.565-.037,1.044-.054,1.436-.054q.722,0,1.643.081a1.562,1.562,0,0,1,1.24,1.008,1.534,1.534,0,0,1,1.228-1.008c.613-.054,1.09-.081,1.436-.081q.754,0,1.641.082a1.439,1.439,0,0,1,1.008.633,2.273,2.273,0,0,1,.47,1.3C191.005,88.059,191.017,88.694,191.017,89.484Z" transform="translate(-73.418 -85.42)" fill="#fff" stroke="#fff" stroke-miterlimit="10" stroke-width="0.472"/>
      <path id="Path_2266" data-name="Path 2266" d="M195.818,92.8c0,.083,0,.179-.009.29h-.495v-.346a1.541,1.541,0,0,1-.981.387h-2.189a1.227,1.227,0,0,1-.988-.5,1.91,1.91,0,0,1-.4-1.25,1.948,1.948,0,0,1,.386-1.211,1.177,1.177,0,0,1,.913-.523c.323-.008.722-.012,1.2-.012h2.065V89.1a1.3,1.3,0,0,0-.234-.766.675.675,0,0,0-.562-.328H192.2a.667.667,0,0,0-.516.272,1.252,1.252,0,0,0-.278.653h-.474l.01-.083a1.69,1.69,0,0,1,.346-.977,1.064,1.064,0,0,1,.741-.473,10.377,10.377,0,0,1,1.218-.068h.009c.582,0,1.063.019,1.449.056a1.136,1.136,0,0,1,.771.476,1.536,1.536,0,0,1,.345.986Zm-.5-1.545V90.247h-1.339l-1.861.012a.771.771,0,0,0-.624.3,1.231,1.231,0,0,0-.239.8,1.212,1.212,0,0,0,.249.784.826.826,0,0,0,.63.327c.248.009.635.013,1.156.013h.948A1.065,1.065,0,0,0,195.314,91.254Z" transform="translate(-72.141 -85.209)" fill="#fff" stroke="#fff" stroke-miterlimit="10" stroke-width="0.472"/>
      <path id="Path_2267" data-name="Path 2267" d="M200.8,90.247v2.842h-.5V89.1a1.268,1.268,0,0,0-.234-.765.675.675,0,0,0-.563-.324H198a5.2,5.2,0,0,0-.547.028.763.763,0,0,0-.523.323,1.119,1.119,0,0,0-.212.695v4.033h-.495V87.43h.495v.3a.969.969,0,0,1,.619-.332c.433-.045.725-.068.875-.068h.022q.888,0,1.454.056a1.067,1.067,0,0,1,.747.476,1.694,1.694,0,0,1,.345.979Q200.8,89.39,200.8,90.247Z" transform="translate(-71.528 -85.209)" fill="#fff" stroke="#fff" stroke-miterlimit="10" stroke-width="0.472"/>
      <path id="Path_2268" data-name="Path 2268" d="M206.313,92.8c0,.083,0,.179-.01.29h-.494v-.346a1.543,1.543,0,0,1-.981.387h-2.185a1.23,1.23,0,0,1-.992-.5,1.909,1.909,0,0,1-.4-1.25,1.948,1.948,0,0,1,.386-1.211,1.177,1.177,0,0,1,.913-.523q.485-.012,1.2-.012h2.064V89.1a1.292,1.292,0,0,0-.235-.766.673.673,0,0,0-.562-.328h-2.321a.668.668,0,0,0-.515.272,1.28,1.28,0,0,0-.278.653h-.475l.01-.083a1.692,1.692,0,0,1,.347-.977,1.066,1.066,0,0,1,.74-.473,10.421,10.421,0,0,1,1.221-.068h.01c.577,0,1.061.019,1.446.056a1.134,1.134,0,0,1,.77.476,1.537,1.537,0,0,1,.346.986Zm-.5-1.545V90.247h-1.338l-1.863.012a.767.767,0,0,0-.622.3,1.232,1.232,0,0,0-.241.8,1.207,1.207,0,0,0,.251.784.824.824,0,0,0,.627.327q.375.013,1.158.013h.946A1.066,1.066,0,0,0,205.809,91.254Z" transform="translate(-70.964 -85.209)" fill="#fff" stroke="#fff" stroke-miterlimit="10" stroke-width="0.472"/>
      <path id="Path_2269" data-name="Path 2269" d="M212.12,87.968a.755.755,0,0,0-.424.263,4.6,4.6,0,0,1,.163,1.531v2.912q0,.923-.03,1.187a2.156,2.156,0,0,1-.384,1.047.925.925,0,0,1-.769.429H207.21V94.7h3.379a.651.651,0,0,0,.549-.311,1.279,1.279,0,0,0,.216-.752,2.3,2.3,0,0,0,.011-.262c0-.046,0-.253-.011-.622a.956.956,0,0,1-.617.332q-.651.04-1.444.041h-.011q-.886,0-1.454-.055a1.07,1.07,0,0,1-.739-.468,1.662,1.662,0,0,1-.345-.976c-.021-.512-.03-.96-.03-1.345v-.04c0-.687.006-1.1.02-1.251a2.418,2.418,0,0,1,.329-1.071,1,1,0,0,1,.765-.523,13.141,13.141,0,0,1,1.437-.068h.022c.551,0,1.038.019,1.457.056a.991.991,0,0,1,.65.371,1.245,1.245,0,0,1,.725-.427Zm-.755,3.384V89.1a1.277,1.277,0,0,0-.232-.764.683.683,0,0,0-.565-.323h-1.275c-.138,0-.567.006-1.286.015a.689.689,0,0,0-.566.322,1.286,1.286,0,0,0-.231.764v2.256a1.278,1.278,0,0,0,.231.763.686.686,0,0,0,.566.324h1.286c-.09,0,.334,0,1.275-.015a.683.683,0,0,0,.565-.323A1.275,1.275,0,0,0,211.365,91.352Z" transform="translate(-70.35 -85.209)" fill="#fff" stroke="#fff" stroke-miterlimit="10" stroke-width="0.472"/>
      <path id="Path_2270" data-name="Path 2270" d="M217.634,90.205v.373h-4.651v.793a1.255,1.255,0,0,0,.234.76.683.683,0,0,0,.565.323h1.272l1.286-.015a.683.683,0,0,0,.565-.32,1.248,1.248,0,0,0,.234-.755v-.016h.5c0,.011,0,.105-.01.291a1.673,1.673,0,0,1-.348.979,1.07,1.07,0,0,1-.742.47q-.572.04-1.454.041h-.009c-.6,0-1.084-.018-1.464-.055a1.073,1.073,0,0,1-.743-.474,1.73,1.73,0,0,1-.353-.981q-.025-.549-.026-1.306v-.067q0-1.126.01-1.251a2.26,2.26,0,0,1,.33-1.071,1.026,1.026,0,0,1,.774-.523,13.178,13.178,0,0,1,1.438-.068h.021q.878,0,1.457.056a1.058,1.058,0,0,1,.746.476,1.8,1.8,0,0,1,.345,1Q217.634,89.431,217.634,90.205Zm-.5-.3v-.8a1.276,1.276,0,0,0-.234-.765.68.68,0,0,0-.565-.324h-1.286c-.137,0-.563.006-1.272.015a.683.683,0,0,0-.565.321,1.259,1.259,0,0,0-.234.76v.8Z" transform="translate(-69.703 -85.209)" fill="#fff" stroke="#fff" stroke-miterlimit="10" stroke-width="0.472"/>
      <path id="Path_2271" data-name="Path 2271" d="M226.742,90.247v2.842h-.5V89.111a1.247,1.247,0,0,0-.239-.764.688.688,0,0,0-.565-.322h-1.269a1.407,1.407,0,0,0-.225-.029,5.344,5.344,0,0,0-.567.029.766.766,0,0,0-.521.352,1.254,1.254,0,0,0-.2.723v3.989h-.549V89.111a1.272,1.272,0,0,0-.232-.764.682.682,0,0,0-.564-.322h-1.282A1.4,1.4,0,0,0,219.8,88a4.984,4.984,0,0,0-.547.029.769.769,0,0,0-.523.323,1.134,1.134,0,0,0-.212.7v4.043h-.495V87.43h.495v.3a.976.976,0,0,1,.622-.318,8.316,8.316,0,0,1,.866-.083h.03c.8,0,1.226,0,1.281.015a1.394,1.394,0,0,1,1.063.757,1.3,1.3,0,0,1,.784-.689,3.775,3.775,0,0,1,.972-.083h.029q.878,0,1.456.056a1.066,1.066,0,0,1,.75.476,1.729,1.729,0,0,1,.346.986C226.733,89.219,226.742,89.685,226.742,90.247Z" transform="translate(-69.081 -85.209)" fill="#fff" stroke="#fff" stroke-miterlimit="10" stroke-width="0.472"/>
      <path id="Path_2272" data-name="Path 2272" d="M231.923,90.205v.373h-4.652v.793a1.254,1.254,0,0,0,.234.76.681.681,0,0,0,.565.323h1.275l1.285-.015a.68.68,0,0,0,.565-.32,1.248,1.248,0,0,0,.234-.755v-.016h.5c0,.011,0,.105-.011.291a1.679,1.679,0,0,1-.347.979,1.07,1.07,0,0,1-.743.47q-.571.04-1.453.041h-.01c-.6,0-1.082-.018-1.465-.055a1.071,1.071,0,0,1-.741-.474,1.731,1.731,0,0,1-.354-.981q-.025-.549-.026-1.306v-.067c0-.751,0-1.168.01-1.251a2.248,2.248,0,0,1,.331-1.071,1.024,1.024,0,0,1,.776-.523,13.119,13.119,0,0,1,1.436-.068h.021q.879,0,1.456.056a1.052,1.052,0,0,1,.745.476,1.772,1.772,0,0,1,.346,1Q231.923,89.431,231.923,90.205Zm-.5-.3v-.8a1.276,1.276,0,0,0-.234-.765.677.677,0,0,0-.565-.324h-1.285c-.138,0-.563.006-1.275.015a.681.681,0,0,0-.565.321,1.259,1.259,0,0,0-.234.76v.8Z" transform="translate(-68.1 -85.209)" fill="#fff" stroke="#fff" stroke-miterlimit="10" stroke-width="0.472"/>
      <path id="Path_2273" data-name="Path 2273" d="M236.895,90.247v2.842h-.5V89.1a1.275,1.275,0,0,0-.231-.765.678.678,0,0,0-.563-.324h-1.509a5.2,5.2,0,0,0-.547.028.766.766,0,0,0-.523.323,1.119,1.119,0,0,0-.212.695v4.033h-.495V87.43h.495v.3a.964.964,0,0,1,.618-.332c.432-.045.725-.068.876-.068h.021c.591,0,1.077.019,1.454.056a1.065,1.065,0,0,1,.747.476,1.685,1.685,0,0,1,.344.979Q236.9,89.39,236.895,90.247Z" transform="translate(-67.478 -85.209)" fill="#fff" stroke="#fff" stroke-miterlimit="10" stroke-width="0.472"/>
      <path id="Path_2274" data-name="Path 2274" d="M239.227,88.276h-.693v5.037h-.5V88.276h-.693V87.6h.693V85.559h.5V87.6h.693Z" transform="translate(-66.914 -85.42)" fill="#fff" stroke="#fff" stroke-miterlimit="10" stroke-width="0.472"/>
      <path id="Path_2275" data-name="Path 2275" d="M250.334,91.008a2.848,2.848,0,0,1-.413,1.552,1.41,1.41,0,0,1-1.084.754q-.826.069-1.944.068h-.02q-.694,0-1.542-.068a1.487,1.487,0,0,1-1.137-.841,2.9,2.9,0,0,1-.35-1.283h.527a1.7,1.7,0,0,0,.356,1,1,1,0,0,0,.769.421q.487.013,1.366.015-.382,0,.868.04a4.293,4.293,0,0,0,.994-.069,1.217,1.217,0,0,0,.754-.469,1.9,1.9,0,0,0,.32-1.119q0-1.625-1.23-1.627h-3.133a1.606,1.606,0,0,1-1.032-.608,2.076,2.076,0,0,1-.445-1.352,2.26,2.26,0,0,1,.417-1.373,1.269,1.269,0,0,1,1.019-.586c.691-.02,1.289-.028,1.8-.028h.021c.289,0,.782.008,1.478.028a1.281,1.281,0,0,1,1.023.586,2.243,2.243,0,0,1,.424,1.373,1.722,1.722,0,0,1-.01.178l-.557-.013V87.4a1.338,1.338,0,0,0-.279-.875.9.9,0,0,0-.683-.355c-.3-.009-.824-.016-1.583-.016.194,0-.054-.008-.744-.027a3.857,3.857,0,0,0-.857.055,1.008,1.008,0,0,0-.652.345,1.345,1.345,0,0,0-.279.87,1.4,1.4,0,0,0,.269.884.856.856,0,0,0,.667.358c.264.01.553.013.863.013h1.81a2.024,2.024,0,0,1,1.963,1.083A2.857,2.857,0,0,1,250.334,91.008Z" transform="translate(-66.184 -85.435)" fill="#fff" stroke="#fff" stroke-miterlimit="10" stroke-width="0.472"/>
      <path id="Path_2276" data-name="Path 2276" d="M252.716,95.3h-.559l.827-2.18-2.16-5.7h.558l1.882,4.969,1.882-4.969h.547Z" transform="translate(-65.401 -85.199)" fill="#fff" stroke="#fff" stroke-miterlimit="10" stroke-width="0.472"/>
      <path id="Path_2277" data-name="Path 2277" d="M261.29,91.507a1.954,1.954,0,0,1-.3,1.1,1.016,1.016,0,0,1-.777.5c-.5.045-.984.069-1.45.069h-.031c-.378,0-.806-.025-1.288-.069a1.111,1.111,0,0,1-.745-.483,1.525,1.525,0,0,1-.346-.964v-.1h.475a1.271,1.271,0,0,0,.272.67.664.664,0,0,0,.522.27h1.454q.414-.015.96-.015a.651.651,0,0,0,.552-.3,1.26,1.26,0,0,0,.21-.752,1.324,1.324,0,0,0-.234-.821.731.731,0,0,0-.616-.311l-2.311-.027a1.281,1.281,0,0,1-.891-.346,1.458,1.458,0,0,1-.393-1.09v-.027a1.721,1.721,0,0,1,.289-1.042,1.029,1.029,0,0,1,.774-.435c.4-.037.8-.055,1.211-.055.543,0,1.031.018,1.458.055a1.033,1.033,0,0,1,.758.5,1.923,1.923,0,0,1,.336,1.048H260.7a1.293,1.293,0,0,0-.274-.657.713.713,0,0,0-.524-.282c-.235-.008-.664-.013-1.294-.013-.2,0-.536.006-1.011.013q-.756.015-.755.87a.748.748,0,0,0,.836.84l2.308.041a1.19,1.19,0,0,1,.913.5,1.861,1.861,0,0,1,.388,1.193Z" transform="translate(-64.781 -85.215)" fill="#fff" stroke="#fff" stroke-miterlimit="10" stroke-width="0.472"/>
      <path id="Path_2278" data-name="Path 2278" d="M263.818,88.276h-.694v5.037h-.5V88.276h-.691V87.6h.691V85.559h.5V87.6h.694Z" transform="translate(-64.154 -85.42)" fill="#fff" stroke="#fff" stroke-miterlimit="10" stroke-width="0.472"/>
      <path id="Path_2279" data-name="Path 2279" d="M269.919,90.205v.373h-4.651v.793a1.24,1.24,0,0,0,.235.76.681.681,0,0,0,.564.323h1.275l1.285-.015a.682.682,0,0,0,.565-.32,1.249,1.249,0,0,0,.235-.755v-.016h.494c0,.011,0,.105-.009.291a1.673,1.673,0,0,1-.348.979,1.068,1.068,0,0,1-.742.47q-.571.04-1.453.041h-.012c-.594,0-1.083-.018-1.464-.055a1.069,1.069,0,0,1-.74-.474,1.7,1.7,0,0,1-.354-.981q-.027-.549-.027-1.306v-.067c0-.751,0-1.168.011-1.251a2.259,2.259,0,0,1,.33-1.071,1.026,1.026,0,0,1,.775-.523,13.141,13.141,0,0,1,1.437-.068h.021q.878,0,1.457.056a1.056,1.056,0,0,1,.745.476,1.806,1.806,0,0,1,.347,1Q269.919,89.431,269.919,90.205Zm-.494-.3v-.8a1.277,1.277,0,0,0-.235-.765.679.679,0,0,0-.565-.324h-1.285c-.139,0-.564.006-1.275.015a.681.681,0,0,0-.564.321,1.245,1.245,0,0,0-.235.76v.8Z" transform="translate(-63.836 -85.209)" fill="#fff" stroke="#fff" stroke-miterlimit="10" stroke-width="0.472"/>
      <path id="Path_2280" data-name="Path 2280" d="M279.259,90.247v2.842h-.495V89.111a1.247,1.247,0,0,0-.238-.764.691.691,0,0,0-.565-.322h-1.269a1.387,1.387,0,0,0-.226-.029,5.476,5.476,0,0,0-.569.029.769.769,0,0,0-.518.352,1.255,1.255,0,0,0-.2.723v3.989h-.547V89.111a1.3,1.3,0,0,0-.232-.764.685.685,0,0,0-.564-.322h-1.281a1.463,1.463,0,0,0-.229-.029,5.013,5.013,0,0,0-.547.029.772.772,0,0,0-.523.323,1.141,1.141,0,0,0-.211.7v4.043h-.5V87.43h.5v.3a.974.974,0,0,1,.621-.318,8.342,8.342,0,0,1,.866-.083h.032c.8,0,1.222,0,1.28.015a1.4,1.4,0,0,1,1.063.757,1.291,1.291,0,0,1,.783-.689,3.781,3.781,0,0,1,.972-.083h.03q.878,0,1.456.056a1.064,1.064,0,0,1,.747.476,1.705,1.705,0,0,1,.347.986Q279.26,89.4,279.259,90.247Z" transform="translate(-63.188 -85.209)" fill="#fff" stroke="#fff" stroke-miterlimit="10" stroke-width="0.472"/>
    </g>
  </g>
</svg>
