<svg xmlns="http://www.w3.org/2000/svg" width="748" height="662.402" viewBox="0 0 748 662.402">
  <g id="sign" transform="translate(-602 -1805)">
    <g id="Rectangle_1914" data-name="Rectangle 1914" transform="translate(602 1805)" fill="#fff" stroke="#707070" stroke-width="1" opacity="0">
      <rect width="748" height="662" stroke="none"/>
      <rect x="0.5" y="0.5" width="747" height="661" fill="none"/>
    </g>
    <g id="Group_37669" data-name="Group 37669" transform="translate(-248 42)">
      <g id="Group_668" data-name="Group 668" transform="translate(539.356 -716.598)" style="mix-blend-mode: multiply;isolation: isolate">
        <path id="Path_2640" data-name="Path 2640" d="M454.1,2820.024c-41.587,0-75.3,27.9-75.3,62.316s33.713,62.317,75.3,62.317c35.509,0,65.257-20.345,73.2-47.715l46.89-5.73-44.937-12.6C526.922,2845.93,494.175,2820.024,454.1,2820.024Z" fill="#999" opacity="0.32" style="mix-blend-mode: overlay;isolation: isolate"/>
        <path id="Path_2641" data-name="Path 2641" d="M581.335,2685c0-34.417-33.713-62.317-75.3-62.317s-75.3,27.9-75.3,62.317,33.713,62.317,75.3,62.317c19.956,0,38.085-6.435,51.559-16.921l32.83,18-21.678-28.9A54.752,54.752,0,0,0,581.335,2685Z" fill="#999" opacity="0.32" style="mix-blend-mode: overlay;isolation: isolate"/>
        <path id="Path_2642" data-name="Path 2642" d="M678.867,2648.6c-.528,19.187-1.24,47.879-.809,49.17l18.867-50.47c34.09-5.953,59.68-30.982,59.68-60.966,0-34.418-33.713-62.318-75.3-62.318s-75.3,27.9-75.3,62.318C606,2620.071,638.409,2647.53,678.867,2648.6Z" fill="#999" opacity="0.32" style="mix-blend-mode: overlay;isolation: isolate"/>
        <path id="Path_2643" data-name="Path 2643" d="M823.028,2719.556a85.486,85.486,0,0,0,45.827,12.882c41.588,0,75.3-27.9,75.3-62.317s-33.713-62.317-75.3-62.317-75.3,27.9-75.3,62.317a54.275,54.275,0,0,0,10.821,32.2l-32.243,31.85Z" fill="#999" opacity="0.32" style="mix-blend-mode: overlay;isolation: isolate"/>
        <path id="Path_2644" data-name="Path 2644" d="M906.7,2779.18c-39.276,0-71.511,24.888-74.976,56.644l-32.133,5.457,32.478,8.419c4.856,30.538,36.405,54.114,74.631,54.114,41.589,0,75.3-27.9,75.3-62.317S948.293,2779.18,906.7,2779.18Z" fill="#999" opacity="0.32" style="mix-blend-mode: overlay;isolation: isolate"/>
        <path id="Path_2645" data-name="Path 2645" d="M734.12,3028.255l12.986,30.207-.027,14.3H730.564v22.423h-14.53V3142H845.067v-46.818h-5.642v-22.423H822.4l-8.794-130.06s-38.044-71.3-44.4-79.134c-6.243-7.7-21.7-25.133-21.7-25.133l-.119,64.784v-152.4a19.747,19.747,0,0,0-19.728-19.725H624.855a19.746,19.746,0,0,0-19.728,19.725v258.822a19.75,19.75,0,0,0,19.728,19.728H727.663A19.594,19.594,0,0,0,734.12,3028.255Z" fill="#999" opacity="0.32" style="mix-blend-mode: overlay;isolation: isolate"/>
      </g>
      <g id="Group_683" data-name="Group 683" transform="translate(539.356 -716.598)">
        <path id="Path_2646" data-name="Path 2646" d="M566.344,2889.7l-44.186-15.029c-.555-32.756-31.845-60.4-71.858-62.584-41.526-2.261-76.707,23.764-78.578,58.131s30.275,64.058,71.8,66.319c35.456,1.93,66.267-16.768,75.688-43.664Z" fill="#fff" stroke="#b3b3b3" stroke-miterlimit="10" stroke-width="1"/>
        <path id="Path_2647" data-name="Path 2647" d="M596.406,2734.985l-21.679-28.9a54.749,54.749,0,0,0,12.591-34.5c0-34.417-33.713-62.317-75.3-62.317s-75.3,27.9-75.3,62.317,33.713,62.317,75.3,62.317c19.956,0,38.085-6.435,51.559-16.921Z" fill="#fff" stroke="#b3b3b3" stroke-miterlimit="10" stroke-width="1"/>
        <path id="Path_2648" data-name="Path 2648" d="M771.587,2572.916c0-34.418-33.712-62.318-75.3-62.318s-75.3,27.9-75.3,62.318c0,33.741,32.406,61.2,72.864,62.266-.528,19.187-1.24,47.879-.809,49.17l18.867-50.47C746,2627.929,771.587,2602.9,771.587,2572.916Z" fill="#fff" stroke="#b3b3b3" stroke-miterlimit="10" stroke-width="1"/>
        <path id="Path_2649" data-name="Path 2649" d="M883.838,2594.39c-41.589,0-75.3,27.9-75.3,62.317a54.276,54.276,0,0,0,10.821,32.2l-32.243,31.85,50.9-14.614a85.486,85.486,0,0,0,45.827,12.882c41.588,0,75.3-27.9,75.3-62.317S925.426,2594.39,883.838,2594.39Z" fill="#fff" stroke="#b3b3b3" stroke-miterlimit="10" stroke-width="1"/>
        <path id="Path_2650" data-name="Path 2650" d="M921.687,2765.766c-39.276,0-71.511,24.888-74.976,56.644l-32.133,5.457,32.478,8.42c4.856,30.537,36.4,54.113,74.631,54.113,41.589,0,75.3-27.9,75.3-62.317S963.276,2765.766,921.687,2765.766Z" fill="#fff" stroke="#b3b3b3" stroke-miterlimit="10" stroke-width="1"/>
        <path id="Path_2651" data-name="Path 2651" d="M708.689,2816.166c-.383,8.281-6.591,14.722-13.864,14.387l-34.786-1.606c-7.275-.335-12.863-7.319-12.48-15.6l.052-1.153c.383-8.283,6.589-14.723,13.864-14.387l34.787,1.6c7.274.336,12.863,7.321,12.48,15.6Z" fill="#fcd0ab"/>
        <g id="Group_673" data-name="Group 673">
          <g id="Group_672" data-name="Group 672">
            <g id="Group_671" data-name="Group 671">
              <path id="Rectangle_373" data-name="Rectangle 373" d="M19.728,0h102.81a19.725,19.725,0,0,1,19.725,19.725V278.547a19.728,19.728,0,0,1-19.728,19.728H19.728A19.728,19.728,0,0,1,0,278.547V19.728A19.728,19.728,0,0,1,19.728,0Z" transform="translate(620.11 2717.673)" fill="#fff"/>
              <path id="Rectangle_374" data-name="Rectangle 374" d="M17.933,0H120.74a17.933,17.933,0,0,1,17.933,17.933V276.757a17.933,17.933,0,0,1-17.933,17.933H17.935A17.935,17.935,0,0,1,0,276.754V17.933A17.933,17.933,0,0,1,17.933,0Z" transform="translate(621.905 2719.466)" fill="#fff"/>
              <rect id="Rectangle_375" data-name="Rectangle 375" width="128.458" height="218.901" transform="translate(626.742 2759.325)" fill="#cad3d8"/>
              <g id="Group_669" data-name="Group 669">
                <path id="Path_2652" data-name="Path 2652" d="M678.091,2996.684a13.146,13.146,0,1,0,13.147-13.148A13.149,13.149,0,0,0,678.091,2996.684Z" fill="#d3d5db"/>
              </g>
              <g id="Group_670" data-name="Group 670">
                <path id="Path_2653" data-name="Path 2653" d="M676.288,2742.1a2.556,2.556,0,0,0,2.646,2.463h24.02a2.555,2.555,0,0,0,2.641-2.463h0a2.556,2.556,0,0,0-2.641-2.466h-24.02a2.557,2.557,0,0,0-2.646,2.466Z" fill="#d3d5db"/>
              </g>
            </g>
          </g>
          <path id="Path_2654" data-name="Path 2654" d="M620.11,2737.4a19.746,19.746,0,0,1,19.728-19.725H742.646a19.747,19.747,0,0,1,19.728,19.725v151.131Z" fill="#fff" opacity="0.32" style="mix-blend-mode: overlay;isolation: isolate"/>
        </g>
        <g id="Group_674" data-name="Group 674">
          <rect id="Rectangle_376" data-name="Rectangle 376" width="115.549" height="1.298" transform="translate(634.401 2792.976)" fill="#fff"/>
        </g>
        <g id="Group_675" data-name="Group 675">
          <rect id="Rectangle_377" data-name="Rectangle 377" width="115.549" height="1.298" transform="translate(634.401 2821.537)" fill="#fff"/>
        </g>
        <g id="Group_676" data-name="Group 676">
          <rect id="Rectangle_378" data-name="Rectangle 378" width="115.549" height="1.298" transform="translate(634.401 2850.1)" fill="#fff"/>
        </g>
        <text id="請假" transform="translate(401.224 2891.411)" fill="gray" stroke="gray" stroke-miterlimit="10" stroke-width="1" font-size="43.866" font-family="MicrosoftJhengHeiLight, Microsoft JhengHei"><tspan x="0" y="0">請假</tspan></text>
        <text id="補卡" transform="translate(461.794 2687.115)" fill="gray" stroke="gray" stroke-miterlimit="10" stroke-width="1" font-size="43.866" font-family="MicrosoftJhengHeiLight, Microsoft JhengHei"><tspan x="0" y="0">補卡</tspan></text>
        <text id="公出" transform="translate(882.975 2839.177)" fill="gray" stroke="gray" stroke-miterlimit="10" stroke-width="1" font-size="43.866" font-family="MicrosoftJhengHeiLight, Microsoft JhengHei"><tspan x="0" y="0">公出</tspan></text>
        <text id="補休" transform="translate(838.757 2673.021)" fill="gray" stroke="gray" stroke-miterlimit="10" stroke-width="1" font-size="43.866" font-family="MicrosoftJhengHeiLight, Microsoft JhengHei"><tspan x="0" y="0">補休</tspan></text>
        <text id="加班" transform="translate(652.491 2583.716)" fill="gray" stroke="gray" stroke-miterlimit="10" stroke-width="1" font-size="43.866" font-family="MicrosoftJhengHeiLight, Microsoft JhengHei"><tspan x="0" y="0">加班</tspan></text>
        <rect id="Rectangle_379" data-name="Rectangle 379" width="129.239" height="20.754" transform="translate(626.251 2882.658)" fill="#7bada8"/>
        <text id="處_理_簽_核" data-name="處 理 簽 核" transform="translate(651.056 2899.022)" fill="#fff" font-size="15.26" font-family="MicrosoftJhengHeiLight, Microsoft JhengHei"><tspan x="0" y="0">處 理 簽 核</tspan></text>
        <g id="Group_682" data-name="Group 682">
          <g id="Group_681" data-name="Group 681">
            <g id="Group_679" data-name="Group 679">
              <path id="Path_2655" data-name="Path 2655" d="M762.219,3142l-.166-77.834.44-239.148s15.453,17.435,21.7,25.133c6.358,7.834,44.4,79.135,44.4,79.135L842.973,3142Z" fill="#fcd0ab"/>
              <g id="Group_678" data-name="Group 678">
                <g id="Group_677" data-name="Group 677">
                  <path id="Path_2656" data-name="Path 2656" d="M763.644,2957.674l-28.627-54.783a15.757,15.757,0,0,0-27.185,15.94l54.993,127.931Z" fill="#fcd0ab"/>
                  <path id="Path_2657" data-name="Path 2657" d="M737.723,2913.683h0v-.007c-.067-.15-.133-.31-.217-.459a4.389,4.389,0,0,0-.353-.572l-4.318-7.8a13.359,13.359,0,0,0-23.634,12.461l4.412,7.777c.08.2.161.389.259.583a4.071,4.071,0,0,0,.544.811h0a4.74,4.74,0,0,0,5.86,1.177l15.248-8.038A4.741,4.741,0,0,0,737.723,2913.683Z" fill="#fff" opacity="0.49"/>
                  <path id="Path_2658" data-name="Path 2658" d="M714.852,2926.146c0,.275.02.542.037.817a4.752,4.752,0,0,0,5.387.691l15.248-8.038a4.741,4.741,0,0,0,2.2-5.933h0v-.007c-.035-.08-.072-.15-.113-.234a14.913,14.913,0,0,0-22.758,12.7Z" fill="#fff" opacity="0.58"/>
                </g>
              </g>
            </g>
            <g id="Group_680" data-name="Group 680">
              <rect id="Rectangle_380" data-name="Rectangle 380" width="108.861" height="32.608" transform="translate(745.547 3059.345)" fill="#fff"/>
              <rect id="Rectangle_381" data-name="Rectangle 381" width="129.033" height="60.232" transform="translate(731.017 3081.768)" fill="#333745"/>
              <path id="Path_2659" data-name="Path 2659" d="M755.5,3070.259a4.984,4.984,0,1,0,4.984-4.985A4.984,4.984,0,0,0,755.5,3070.259Z" fill="#333745"/>
            </g>
          </g>
          <rect id="Rectangle_382" data-name="Rectangle 382" width="63.931" height="60.232" transform="translate(731.017 3081.768)" fill="#fff" opacity="0.32" style="mix-blend-mode: overlay;isolation: isolate"/>
        </g>
      </g>
    </g>
  </g>
</svg>
